<svg version="1.1" id="Layer_1" xmlns="http://www.w3.org/2000/svg" xmlns:xlink="http://www.w3.org/1999/xlink" x="0px" y="0px"
	 width="100%" viewBox="0 0 301 355" enable-background="new 0 0 301 355" xml:space="preserve">
<path fill="#000000" opacity="1.000000" stroke="none" 
	d="
M155.000000,356.000000 
	C103.333351,356.000000 52.166702,356.000000 1.000041,356.000000 
	C1.000027,237.666733 1.000027,119.333458 1.000014,1.000136 
	C101.333244,1.000091 201.666489,1.000091 301.999817,1.000046 
	C301.999878,119.333191 301.999878,237.666382 301.999939,355.999786 
	C253.166672,356.000000 204.333328,356.000000 155.000000,356.000000 
M111.036102,318.446106 
	C122.541267,325.295410 134.048264,332.141632 145.550644,338.995605 
	C149.731415,341.486847 153.641754,342.396851 158.327545,339.428497 
	C167.681671,333.502747 177.389053,328.134796 186.947327,322.531006 
	C208.062637,310.151520 229.163895,297.747986 250.294678,285.394989 
	C262.859741,278.049530 275.537415,270.892731 287.986359,263.356995 
	C289.826050,262.243408 291.816528,259.506317 291.824432,257.512756 
	C292.033569,204.872009 292.023285,152.230148 291.858307,99.589081 
	C291.852417,97.710495 290.359222,95.097237 288.762024,94.088173 
	C280.936279,89.144073 272.842194,84.624489 264.839417,79.960907 
	C227.399521,58.142960 189.958450,36.327000 152.481598,14.489233 
	C125.350609,30.319864 98.207512,46.151382 71.070755,61.993752 
	C53.360058,72.333221 35.662357,82.694954 17.949198,93.030197 
	C15.013337,94.743202 12.879906,96.454414 12.893295,100.612007 
	C13.060676,152.586731 13.032395,204.562225 12.937365,256.537292 
	C12.931038,259.997559 14.133813,261.931061 17.106457,263.642792 
	C36.428562,274.768829 55.638077,286.090271 74.898155,297.324249 
	C86.739639,304.231079 98.605438,311.096222 111.036102,318.446106 
z"/>
<path fill="#880015" opacity="1.000000" stroke="none" 
	d="
M110.748215,318.213074 
	C98.605438,311.096222 86.739639,304.231079 74.898155,297.324249 
	C55.638077,286.090271 36.428562,274.768829 17.106457,263.642792 
	C14.133813,261.931061 12.931038,259.997559 12.937365,256.537292 
	C13.032395,204.562225 13.060676,152.586731 12.893295,100.612007 
	C12.879906,96.454414 15.013337,94.743202 17.949198,93.030197 
	C35.662357,82.694954 53.360058,72.333221 71.070755,61.993752 
	C98.207512,46.151382 125.350609,30.319864 152.481598,14.489233 
	C189.958450,36.327000 227.399521,58.142960 264.839417,79.960907 
	C272.842194,84.624489 280.936279,89.144073 288.762024,94.088173 
	C290.359222,95.097237 291.852417,97.710495 291.858307,99.589081 
	C292.023285,152.230148 292.033569,204.872009 291.824432,257.512756 
	C291.816528,259.506317 289.826050,262.243408 287.986359,263.356995 
	C275.537415,270.892731 262.859741,278.049530 250.294678,285.394989 
	C229.163895,297.747986 208.062637,310.151520 186.947327,322.531006 
	C177.389053,328.134796 167.681671,333.502747 158.327545,339.428497 
	C153.641754,342.396851 149.731415,341.486847 145.550644,338.995605 
	C134.048264,332.141632 122.541267,325.295410 110.748215,318.213074 
z"/>
</svg>