<svg version="1.1" id="Layer_1" xmlns="http://www.w3.org/2000/svg" xmlns:xlink="http://www.w3.org/1999/xlink" x="0px" y="0px"
	 width="100%" viewBox="0 0 301 355" enable-background="new 0 0 301 355" xml:space="preserve">
<path fill="#000000" opacity="1.000000" stroke="none" 
	d="
M155.000000,356.000000 
	C103.333351,356.000000 52.166702,356.000000 1.000041,356.000000 
	C1.000027,237.666733 1.000027,119.333458 1.000014,1.000136 
	C101.333244,1.000091 201.666489,1.000091 301.999817,1.000046 
	C301.999878,119.333191 301.999878,237.666382 301.999939,355.999786 
	C253.166672,356.000000 204.333328,356.000000 155.000000,356.000000 
M111.008171,318.482544 
	C122.593834,325.400787 134.181122,332.316345 145.764297,339.238739 
	C149.909546,341.716095 153.773224,342.127014 158.288651,339.411499 
	C174.031555,329.944214 189.998230,320.849518 205.860687,311.580414 
	C221.162323,302.639008 236.429977,293.639465 251.731949,284.698608 
	C263.663910,277.726837 275.536041,270.643433 287.635468,263.973785 
	C290.763580,262.249451 292.102539,260.519775 292.067444,256.950165 
	C291.911652,241.121063 292.000000,225.289551 292.000000,209.458908 
	C292.000000,173.131744 292.044403,136.804382 291.887543,100.477905 
	C291.878326,98.339828 290.860626,95.202911 289.272827,94.233841 
	C276.780640,86.609497 264.033905,79.402374 251.367920,72.062668 
	C236.458221,63.422787 221.533325,54.808929 206.647079,46.128830 
	C188.952103,35.810986 171.297012,25.424704 153.589142,15.129141 
	C153.024719,14.800990 151.920914,14.878538 151.319519,15.215227 
	C143.663361,19.501465 136.006195,23.789841 128.440048,28.232231 
	C105.437263,41.738071 82.479225,55.320084 59.493759,68.855438 
	C45.064957,77.352066 30.673130,85.914505 16.129147,94.209732 
	C13.489165,95.715462 12.948290,97.426590 12.957469,100.123505 
	C13.032900,122.286148 13.000007,144.449158 13.000005,166.612061 
	C13.000002,196.606964 12.945439,226.602173 13.116352,256.596100 
	C13.128428,258.715454 14.220606,261.625214 15.815642,262.784332 
	C20.001078,265.825928 24.760515,268.071472 29.258965,270.689667 
	C44.406574,279.505859 59.535912,288.353424 74.680412,297.174927 
	C86.598572,304.117157 98.528847,311.038666 111.008171,318.482544 
z"/>
<path fill="#04FC84" opacity="1.000000" stroke="none" 
	d="
M110.730957,318.225952 
	C98.528847,311.038666 86.598572,304.117157 74.680412,297.174927 
	C59.535912,288.353424 44.406574,279.505859 29.258965,270.689667 
	C24.760515,268.071472 20.001078,265.825928 15.815642,262.784332 
	C14.220606,261.625214 13.128428,258.715454 13.116352,256.596100 
	C12.945439,226.602173 13.000002,196.606964 13.000005,166.612061 
	C13.000007,144.449158 13.032900,122.286148 12.957469,100.123505 
	C12.948290,97.426590 13.489165,95.715462 16.129147,94.209732 
	C30.673130,85.914505 45.064957,77.352066 59.493759,68.855438 
	C82.479225,55.320084 105.437263,41.738071 128.440048,28.232231 
	C136.006195,23.789841 143.663361,19.501465 151.319519,15.215227 
	C151.920914,14.878538 153.024719,14.800990 153.589142,15.129141 
	C171.297012,25.424704 188.952103,35.810986 206.647079,46.128830 
	C221.533325,54.808929 236.458221,63.422787 251.367920,72.062668 
	C264.033905,79.402374 276.780640,86.609497 289.272827,94.233841 
	C290.860626,95.202911 291.878326,98.339828 291.887543,100.477905 
	C292.044403,136.804382 292.000000,173.131744 292.000000,209.458908 
	C292.000000,225.289551 291.911652,241.121063 292.067444,256.950165 
	C292.102539,260.519775 290.763580,262.249451 287.635468,263.973785 
	C275.536041,270.643433 263.663910,277.726837 251.731949,284.698608 
	C236.429977,293.639465 221.162323,302.639008 205.860687,311.580414 
	C189.998230,320.849518 174.031555,329.944214 158.288651,339.411499 
	C153.773224,342.127014 149.909546,341.716095 145.764297,339.238739 
	C134.181122,332.316345 122.593834,325.400787 110.730957,318.225952 
z"/>
</svg>