<svg version="1.1" id="Layer_1" xmlns="http://www.w3.org/2000/svg" xmlns:xlink="http://www.w3.org/1999/xlink" x="0px" y="0px"
	 width="100%" viewBox="0 0 1200 1200" enable-background="new 0 0 1200 1200" xml:space="preserve">
<path fill="#000000" opacity="1.000000" stroke="none" 
	d="
M666.000000,1201.000000 
	C444.000000,1201.000000 222.500000,1201.000000 1.000000,1201.000000 
	C1.000000,801.000000 1.000000,401.000000 1.000000,1.000000 
	C401.000000,1.000000 801.000000,1.000000 1201.000000,1.000000 
	C1201.000000,401.000000 1201.000000,801.000000 1201.000000,1201.000000 
	C1022.833313,1201.000000 844.666687,1201.000000 666.000000,1201.000000 
M203.703613,621.818542 
	C206.867081,621.878235 210.173981,622.532104 213.149658,621.813843 
	C215.631638,621.214844 219.359131,619.310913 219.703461,617.458496 
	C221.071823,610.097107 221.700027,602.540039 221.914032,595.035767 
	C222.241562,583.551270 222.000000,572.050537 222.000000,560.556702 
	C222.000000,552.198853 222.000000,543.841003 222.000000,534.502319 
	C224.401840,538.394165 226.243591,541.310669 228.018967,544.267090 
	C235.132355,556.112671 242.115173,568.038574 249.372299,579.795166 
	C252.949966,585.591125 256.010956,586.597229 261.855591,583.435913 
	C264.673096,581.911926 267.209351,579.112549 268.844116,576.293945 
	C274.533234,566.485107 279.728333,556.391052 285.203827,546.456421 
	C287.472321,542.340576 289.974762,538.353699 293.000000,533.245728 
	C293.000000,536.065979 293.000000,537.651611 293.000000,539.237244 
	C293.000000,557.893921 292.999969,576.550537 293.000000,595.207214 
	C293.000000,601.198853 292.687897,607.212830 293.113525,613.174072 
	C293.382233,616.937012 293.986053,621.078064 299.555359,621.132019 
	C305.782776,621.192383 312.093811,622.394226 318.209778,621.700439 
	C325.758759,620.844116 326.059174,619.812866 325.989777,611.732056 
	C325.679993,575.665344 325.239655,539.599426 325.058899,503.532104 
	C325.006836,493.141327 325.638306,482.746063 326.007812,472.354706 
	C326.171356,467.755798 321.892090,463.039703 317.344849,463.007660 
	C312.514343,462.973633 307.622375,462.542480 302.876099,463.175690 
	C300.130463,463.542023 296.606781,464.986786 295.178406,467.116577 
	C289.096466,476.185181 283.448914,485.567413 278.053131,495.068207 
	C271.482666,506.637360 265.348572,518.453857 258.947754,530.120605 
	C258.338440,531.231201 257.175415,532.037964 256.269470,532.985840 
	C255.329651,531.976074 254.079697,531.117981 253.499619,529.932190 
	C249.231812,521.207825 245.438858,512.234314 240.838760,503.693420 
	C234.530441,491.980835 227.703812,480.544403 220.967056,469.067261 
	C218.715149,465.230774 215.625214,462.589081 210.623291,462.940460 
	C206.479309,463.231537 202.298538,462.985138 198.134186,463.003540 
	C191.997253,463.030609 187.972946,467.923157 189.003647,473.927917 
	C189.470062,476.645111 189.988770,479.411743 189.948013,482.147949 
	C189.723450,497.227325 189.126205,512.303162 189.044571,527.382263 
	C188.890350,555.866150 188.999939,584.351501 189.000275,612.836243 
	C189.000290,614.002258 188.571594,615.438904 189.096420,616.277893 
	C190.182510,618.014343 191.513062,620.252625 193.220184,620.801941 
	C196.254654,621.778442 199.643951,621.652466 203.703613,621.818542 
M346.032593,608.768799 
	C345.753906,609.679626 345.435425,610.580444 345.202820,611.502869 
	C343.548706,618.064148 345.832672,621.793640 352.262421,621.904358 
	C358.547882,622.012634 364.844727,621.293701 371.140442,621.030334 
	C376.392517,620.810608 377.964508,617.388855 379.075409,612.929993 
	C380.994904,605.225586 383.373169,597.635498 385.558197,590.000061 
	C399.831055,590.000061 413.827515,589.879761 427.816132,590.156189 
	C429.518402,590.189758 432.094574,592.011475 432.693329,593.597961 
	C434.835815,599.274658 436.247772,605.223267 438.039276,611.037231 
	C439.617188,616.158081 441.988892,621.107605 447.879364,621.779968 
	C453.625916,622.435913 459.582184,622.446106 465.315063,621.712952 
	C471.755615,620.889282 474.273224,617.542053 472.902557,612.802307 
	C471.178711,606.841370 468.937286,601.032166 467.024597,595.123413 
	C463.970337,585.687805 460.929657,576.246582 458.022888,566.764954 
	C455.863739,559.721985 454.204010,552.516602 451.832153,545.550232 
	C446.726837,530.555237 441.360138,515.648254 435.995819,500.742920 
	C432.097809,489.911987 428.156006,479.093018 423.970520,468.371490 
	C422.599091,464.858490 419.993744,462.630554 415.612671,462.923218 
	C410.635620,463.255676 405.619263,462.999695 400.619995,463.000061 
	C394.258514,463.000549 391.977753,464.646057 389.996490,470.794891 
	C387.302246,479.156555 384.590668,487.513489 381.998505,495.907013 
	C379.114380,505.246063 376.594360,514.703979 373.484955,523.965576 
	C369.209961,536.698853 364.202911,549.191528 360.108673,561.979065 
	C355.227631,577.224060 350.980377,592.671875 346.032593,608.768799 
M577.970581,528.169128 
	C578.181274,526.723938 578.179932,525.207275 578.639099,523.845947 
	C580.682495,517.787598 582.986633,511.815552 584.957092,505.734711 
	C588.406067,495.090637 591.463074,484.314972 595.113953,473.742798 
	C597.059082,468.110168 594.160889,463.043884 588.195374,463.007202 
	C582.699768,462.973419 577.195129,463.192108 571.710388,462.945221 
	C566.373352,462.704926 563.513306,465.564789 562.006409,470.102448 
	C557.270508,484.363739 552.607300,498.650055 548.042419,512.966980 
	C542.322205,530.907227 536.727417,548.887512 530.632996,568.266907 
	C527.356018,557.259766 524.599609,547.747314 521.686035,538.283264 
	C518.537842,528.057068 515.134399,517.908752 512.039673,507.666870 
	C508.245911,495.111511 504.831909,482.439117 500.886078,469.933319 
	C499.469910,465.445007 496.139740,462.728058 490.876770,462.948639 
	C485.390564,463.178650 479.887238,462.990387 474.391418,463.002625 
	C468.464783,463.015839 465.905609,466.375488 467.666687,472.201355 
	C472.342773,487.670135 477.009674,503.144073 481.931946,518.535461 
	C487.342255,535.452942 493.196716,552.228882 498.551636,569.163269 
	C502.983612,583.178894 506.759125,597.403564 511.277496,611.389526 
	C512.718811,615.851013 514.745544,620.943909 520.380615,621.690674 
	C525.128357,622.319885 530.010254,621.973938 534.833008,621.991333 
	C542.577820,622.019287 545.452637,619.922852 548.067078,612.564148 
	C552.135193,601.113892 556.270081,589.687378 560.311707,578.227783 
	C566.103760,561.804810 571.837280,545.361084 577.970581,528.169128 
M834.975159,559.468079 
	C829.874451,557.645630 824.888855,554.765381 819.651855,554.195312 
	C802.674866,552.347534 787.720032,556.688049 776.138855,570.275391 
	C765.873352,582.319031 762.552246,596.231750 765.867615,611.201111 
	C770.167725,630.616455 782.883484,642.810669 802.136780,647.510010 
	C818.063782,651.397461 832.321228,647.132751 844.292297,636.109009 
	C857.196960,624.225464 862.426392,609.453247 858.957764,592.067505 
	C856.119812,577.843689 848.636658,566.818726 834.975159,559.468079 
M688.517395,612.990295 
	C689.563965,612.058960 690.610474,611.127625 692.498413,609.447388 
	C687.225342,609.199341 682.776917,608.990051 677.278992,608.731384 
	C681.766602,604.809143 685.549866,601.684204 689.129028,598.340759 
	C700.606445,587.619446 712.006958,576.815796 723.439697,566.046692 
	C734.994019,555.162964 746.574585,544.307007 758.101440,533.394287 
	C771.563232,520.649597 784.969177,507.845947 798.419678,495.089325 
	C804.407593,489.410431 810.445251,483.783997 816.413940,478.177246 
	C826.630859,484.072235 837.631775,480.214142 842.219849,474.220490 
	C848.032227,466.627563 847.992920,456.540588 842.699890,450.235962 
	C835.661377,441.852112 826.406128,439.498932 817.191467,444.926483 
	C808.195557,450.225220 805.592346,458.822144 809.683655,471.648285 
	C802.563599,478.159393 795.347046,484.634247 788.270142,491.258240 
	C776.195557,502.560242 764.218933,513.966797 752.181580,525.308716 
	C741.113708,535.737000 729.980469,546.096252 718.947510,556.561340 
	C704.410034,570.350525 689.944153,584.215149 675.441345,598.040894 
	C674.446228,598.989502 673.399475,599.883911 672.036011,601.109985 
	C672.476013,596.492859 672.855408,592.512207 673.234802,588.531555 
	C672.808472,588.316711 672.382202,588.101929 671.955872,587.887146 
	C668.811829,591.983582 662.829590,593.476990 662.863647,600.555237 
	C662.889282,605.866882 661.723511,611.184326 661.066345,616.681335 
	C665.945923,617.120789 670.829712,617.533203 675.707458,618.007568 
	C680.535645,618.477234 684.933777,617.848877 688.517395,612.990295 
M616.993042,466.233002 
	C619.412537,475.191895 627.325317,479.853912 635.987854,479.975220 
	C644.463562,480.093933 651.198181,474.654877 654.696960,465.147614 
	C695.955811,465.147614 737.214661,465.147614 779.729187,465.147614 
	C776.022339,468.618561 773.012390,471.436920 769.578735,474.652069 
	C781.910461,475.587158 781.904846,475.581512 789.495300,468.008942 
	C791.971741,465.538361 794.485657,463.105255 796.978638,460.658752 
	C782.638733,445.263885 781.243835,444.530090 769.426270,446.793213 
	C772.825806,449.872559 775.825134,452.589325 779.360291,455.791473 
	C737.137207,455.791473 695.743408,455.791473 654.360657,455.791473 
	C651.050964,444.552979 639.956421,437.691589 630.276062,441.282928 
	C618.443115,445.672852 613.710754,456.791443 616.993042,466.233002 
M742.092712,615.000000 
	C741.194336,615.000000 740.296021,615.000000 739.397644,615.000000 
	C739.018127,615.557007 738.638550,616.114075 738.259033,616.671082 
	C741.459290,619.282410 744.659546,621.893677 748.466431,625.000000 
	C741.198669,625.000000 735.040283,625.000000 728.881958,625.000000 
	C705.575439,625.000000 682.268616,625.040527 658.962830,624.913635 
	C657.315552,624.904663 655.216553,624.084412 654.128601,622.903442 
	C651.984741,620.576233 650.416016,617.721985 648.586914,615.101379 
	C644.514465,609.266602 633.670288,608.356750 627.389648,611.378723 
	C620.794434,614.551880 616.650452,620.289368 616.044434,627.850159 
	C615.240662,637.877319 621.378174,646.687744 633.296326,648.838135 
	C640.771057,650.186768 651.419067,645.570374 654.468384,634.242065 
	C685.173645,634.242065 715.868469,634.242065 746.563293,634.242065 
	C746.892883,634.643616 747.222473,635.045227 747.552002,635.446777 
	C744.441528,638.158447 741.331055,640.870117 737.740845,644.000000 
	C740.593933,644.000000 742.594055,644.142273 744.564941,643.963318 
	C746.939026,643.747803 749.941650,644.050964 751.527222,642.742371 
	C756.477966,638.656433 760.889038,633.916565 765.927307,629.024353 
	C758.081055,623.537659 754.692200,612.648621 742.092712,615.000000 
z"/>
<path fill="#FFFFFF" opacity="1.000000" stroke="none" 
	d="
M203.294220,621.903076 
	C199.643951,621.652466 196.254654,621.778442 193.220184,620.801941 
	C191.513062,620.252625 190.182510,618.014343 189.096420,616.277893 
	C188.571594,615.438904 189.000290,614.002258 189.000275,612.836243 
	C188.999939,584.351501 188.890350,555.866150 189.044571,527.382263 
	C189.126205,512.303162 189.723450,497.227325 189.948013,482.147949 
	C189.988770,479.411743 189.470062,476.645111 189.003647,473.927917 
	C187.972946,467.923157 191.997253,463.030609 198.134186,463.003540 
	C202.298538,462.985138 206.479309,463.231537 210.623291,462.940460 
	C215.625214,462.589081 218.715149,465.230774 220.967056,469.067261 
	C227.703812,480.544403 234.530441,491.980835 240.838760,503.693420 
	C245.438858,512.234314 249.231812,521.207825 253.499619,529.932190 
	C254.079697,531.117981 255.329651,531.976074 256.269470,532.985840 
	C257.175415,532.037964 258.338440,531.231201 258.947754,530.120605 
	C265.348572,518.453857 271.482666,506.637360 278.053131,495.068207 
	C283.448914,485.567413 289.096466,476.185181 295.178406,467.116577 
	C296.606781,464.986786 300.130463,463.542023 302.876099,463.175690 
	C307.622375,462.542480 312.514343,462.973633 317.344849,463.007660 
	C321.892090,463.039703 326.171356,467.755798 326.007812,472.354706 
	C325.638306,482.746063 325.006836,493.141327 325.058899,503.532104 
	C325.239655,539.599426 325.679993,575.665344 325.989777,611.732056 
	C326.059174,619.812866 325.758759,620.844116 318.209778,621.700439 
	C312.093811,622.394226 305.782776,621.192383 299.555359,621.132019 
	C293.986053,621.078064 293.382233,616.937012 293.113525,613.174072 
	C292.687897,607.212830 293.000000,601.198853 293.000000,595.207214 
	C292.999969,576.550537 293.000000,557.893921 293.000000,539.237244 
	C293.000000,537.651611 293.000000,536.065979 293.000000,533.245728 
	C289.974762,538.353699 287.472321,542.340576 285.203827,546.456421 
	C279.728333,556.391052 274.533234,566.485107 268.844116,576.293945 
	C267.209351,579.112549 264.673096,581.911926 261.855591,583.435913 
	C256.010956,586.597229 252.949966,585.591125 249.372299,579.795166 
	C242.115173,568.038574 235.132355,556.112671 228.018967,544.267090 
	C226.243591,541.310669 224.401840,538.394165 222.000000,534.502319 
	C222.000000,543.841003 222.000000,552.198853 222.000000,560.556702 
	C222.000000,572.050537 222.241562,583.551270 221.914032,595.035767 
	C221.700027,602.540039 221.071823,610.097107 219.703461,617.458496 
	C219.359131,619.310913 215.631638,621.214844 213.149658,621.813843 
	C210.173981,622.532104 206.867081,621.878235 203.294220,621.903076 
z"/>
<path fill="#FFFFFF" opacity="1.000000" stroke="none" 
	d="
M346.245575,608.400330 
	C350.980377,592.671875 355.227631,577.224060 360.108673,561.979065 
	C364.202911,549.191528 369.209961,536.698853 373.484955,523.965576 
	C376.594360,514.703979 379.114380,505.246063 381.998505,495.907013 
	C384.590668,487.513489 387.302246,479.156555 389.996490,470.794891 
	C391.977753,464.646057 394.258514,463.000549 400.619995,463.000061 
	C405.619263,462.999695 410.635620,463.255676 415.612671,462.923218 
	C419.993744,462.630554 422.599091,464.858490 423.970520,468.371490 
	C428.156006,479.093018 432.097809,489.911987 435.995819,500.742920 
	C441.360138,515.648254 446.726837,530.555237 451.832153,545.550232 
	C454.204010,552.516602 455.863739,559.721985 458.022888,566.764954 
	C460.929657,576.246582 463.970337,585.687805 467.024597,595.123413 
	C468.937286,601.032166 471.178711,606.841370 472.902557,612.802307 
	C474.273224,617.542053 471.755615,620.889282 465.315063,621.712952 
	C459.582184,622.446106 453.625916,622.435913 447.879364,621.779968 
	C441.988892,621.107605 439.617188,616.158081 438.039276,611.037231 
	C436.247772,605.223267 434.835815,599.274658 432.693329,593.597961 
	C432.094574,592.011475 429.518402,590.189758 427.816132,590.156189 
	C413.827515,589.879761 399.831055,590.000061 385.558197,590.000061 
	C383.373169,597.635498 380.994904,605.225586 379.075409,612.929993 
	C377.964508,617.388855 376.392517,620.810608 371.140442,621.030334 
	C364.844727,621.293701 358.547882,622.012634 352.262421,621.904358 
	C345.832672,621.793640 343.548706,618.064148 345.202820,611.502869 
	C345.435425,610.580444 345.753906,609.679626 346.245575,608.400330 
M421.728577,556.757324 
	C417.260895,543.822693 412.793182,530.888062 408.003326,517.020691 
	C403.378387,531.402771 399.203949,544.384033 395.152008,556.984253 
	C403.811462,556.984253 412.342499,556.984253 421.728577,556.757324 
z"/>
<path fill="#FFFFFF" opacity="1.000000" stroke="none" 
	d="
M577.783203,528.547729 
	C571.837280,545.361084 566.103760,561.804810 560.311707,578.227783 
	C556.270081,589.687378 552.135193,601.113892 548.067078,612.564148 
	C545.452637,619.922852 542.577820,622.019287 534.833008,621.991333 
	C530.010254,621.973938 525.128357,622.319885 520.380615,621.690674 
	C514.745544,620.943909 512.718811,615.851013 511.277496,611.389526 
	C506.759125,597.403564 502.983612,583.178894 498.551636,569.163269 
	C493.196716,552.228882 487.342255,535.452942 481.931946,518.535461 
	C477.009674,503.144073 472.342773,487.670135 467.666687,472.201355 
	C465.905609,466.375488 468.464783,463.015839 474.391418,463.002625 
	C479.887238,462.990387 485.390564,463.178650 490.876770,462.948639 
	C496.139740,462.728058 499.469910,465.445007 500.886078,469.933319 
	C504.831909,482.439117 508.245911,495.111511 512.039673,507.666870 
	C515.134399,517.908752 518.537842,528.057068 521.686035,538.283264 
	C524.599609,547.747314 527.356018,557.259766 530.632996,568.266907 
	C536.727417,548.887512 542.322205,530.907227 548.042419,512.966980 
	C552.607300,498.650055 557.270508,484.363739 562.006409,470.102448 
	C563.513306,465.564789 566.373352,462.704926 571.710388,462.945221 
	C577.195129,463.192108 582.699768,462.973419 588.195374,463.007202 
	C594.160889,463.043884 597.059082,468.110168 595.113953,473.742798 
	C591.463074,484.314972 588.406067,495.090637 584.957092,505.734711 
	C582.986633,511.815552 580.682495,517.787598 578.639099,523.845947 
	C578.179932,525.207275 578.181274,526.723938 577.783203,528.547729 
z"/>
<path fill="#FFFFFF" opacity="1.000000" stroke="none" 
	d="
M835.269592,559.713867 
	C848.636658,566.818726 856.119812,577.843689 858.957764,592.067505 
	C862.426392,609.453247 857.196960,624.225464 844.292297,636.109009 
	C832.321228,647.132751 818.063782,651.397461 802.136780,647.510010 
	C782.883484,642.810669 770.167725,630.616455 765.867615,611.201111 
	C762.552246,596.231750 765.873352,582.319031 776.138855,570.275391 
	C787.720032,556.688049 802.674866,552.347534 819.651855,554.195312 
	C824.888855,554.765381 829.874451,557.645630 835.269592,559.713867 
M832.009155,598.486389 
	C836.025757,594.874207 840.042297,591.262024 843.055359,588.552307 
	C841.244019,586.140930 839.577881,583.922913 836.604980,579.965393 
	C825.627014,592.401306 815.179077,604.236816 804.587524,616.235046 
	C797.980530,608.932190 792.524902,602.902039 787.121338,596.929321 
	C785.107727,598.979004 783.259216,600.860657 781.350586,602.803467 
	C788.234314,610.591492 795.386475,618.683228 802.551636,626.789673 
	C807.301270,622.420776 812.236084,618.032288 816.995911,613.461609 
	C821.921997,608.731323 826.678284,603.824280 832.009155,598.486389 
z"/>
<path fill="#FFFFFF" opacity="1.000000" stroke="none" 
	d="
M688.253906,613.251831 
	C684.933777,617.848877 680.535645,618.477234 675.707458,618.007568 
	C670.829712,617.533203 665.945923,617.120789 661.066345,616.681335 
	C661.723511,611.184326 662.889282,605.866882 662.863647,600.555237 
	C662.829590,593.476990 668.811829,591.983582 671.955872,587.887146 
	C672.382202,588.101929 672.808472,588.316711 673.234802,588.531555 
	C672.855408,592.512207 672.476013,596.492859 672.036011,601.109985 
	C673.399475,599.883911 674.446228,598.989502 675.441345,598.040894 
	C689.944153,584.215149 704.410034,570.350525 718.947510,556.561340 
	C729.980469,546.096252 741.113708,535.737000 752.181580,525.308716 
	C764.218933,513.966797 776.195557,502.560242 788.270142,491.258240 
	C795.347046,484.634247 802.563599,478.159393 809.683655,471.648285 
	C805.592346,458.822144 808.195557,450.225220 817.191467,444.926483 
	C826.406128,439.498932 835.661377,441.852112 842.699890,450.235962 
	C847.992920,456.540588 848.032227,466.627563 842.219849,474.220490 
	C837.631775,480.214142 826.630859,484.072235 816.413940,478.177246 
	C810.445251,483.783997 804.407593,489.410431 798.419678,495.089325 
	C784.969177,507.845947 771.563232,520.649597 758.101440,533.394287 
	C746.574585,544.307007 734.994019,555.162964 723.439697,566.046692 
	C712.006958,576.815796 700.606445,587.619446 689.129028,598.340759 
	C685.549866,601.684204 681.766602,604.809143 677.278992,608.731384 
	C682.776917,608.990051 687.225342,609.199341 692.498413,609.447388 
	C690.610474,611.127625 689.563965,612.058960 688.253906,613.251831 
z"/>
<path fill="#FFFFFF" opacity="1.000000" stroke="none" 
	d="
M616.942871,465.815216 
	C613.710754,456.791443 618.443115,445.672852 630.276062,441.282928 
	C639.956421,437.691589 651.050964,444.552979 654.360657,455.791473 
	C695.743408,455.791473 737.137207,455.791473 779.360291,455.791473 
	C775.825134,452.589325 772.825806,449.872559 769.426270,446.793213 
	C781.243835,444.530090 782.638733,445.263885 796.978638,460.658752 
	C794.485657,463.105255 791.971741,465.538361 789.495300,468.008942 
	C781.904846,475.581512 781.910461,475.587158 769.578735,474.652069 
	C773.012390,471.436920 776.022339,468.618561 779.729187,465.147614 
	C737.214661,465.147614 695.955811,465.147614 654.696899,465.141052 
	C651.198181,474.654877 644.463562,480.093933 635.987854,479.975220 
	C627.325317,479.853912 619.412537,475.191895 616.942871,465.815216 
z"/>
<path fill="#FFFFFF" opacity="1.000000" stroke="none" 
	d="
M742.519409,615.000000 
	C754.692200,612.648621 758.081055,623.537659 765.927307,629.024353 
	C760.889038,633.916565 756.477966,638.656433 751.527222,642.742371 
	C749.941650,644.050964 746.939026,643.747803 744.564941,643.963318 
	C742.594055,644.142273 740.593933,644.000000 737.740845,644.000000 
	C741.331055,640.870117 744.441528,638.158447 747.552002,635.446777 
	C747.222473,635.045227 746.892883,634.643616 746.563293,634.242065 
	C715.868469,634.242065 685.173645,634.242065 654.468384,634.242065 
	C651.419067,645.570374 640.771057,650.186768 633.296326,648.838135 
	C621.378174,646.687744 615.240662,637.877319 616.044434,627.850159 
	C616.650452,620.289368 620.794434,614.551880 627.389648,611.378723 
	C633.670288,608.356750 644.514465,609.266602 648.586914,615.101379 
	C650.416016,617.721985 651.984741,620.576233 654.128601,622.903442 
	C655.216553,624.084412 657.315552,624.904663 658.962830,624.913635 
	C682.268616,625.040527 705.575439,625.000000 728.881958,625.000000 
	C735.040283,625.000000 741.198669,625.000000 748.466431,625.000000 
	C744.659546,621.893677 741.459290,619.282410 738.259033,616.671082 
	C738.638550,616.114075 739.018127,615.557007 739.397644,615.000000 
	C740.296021,615.000000 741.194336,615.000000 742.519409,615.000000 
z"/>
<path fill="#000000" opacity="1.000000" stroke="none" 
	d="
M421.301056,556.870789 
	C412.342499,556.984253 403.811462,556.984253 395.152008,556.984253 
	C399.203949,544.384033 403.378387,531.402771 408.003326,517.020691 
	C412.793182,530.888062 417.260895,543.822693 421.301056,556.870789 
z"/>
<path fill="#000000" opacity="1.000000" stroke="none" 
	d="
M831.759033,598.740479 
	C826.678284,603.824280 821.921997,608.731323 816.995911,613.461609 
	C812.236084,618.032288 807.301270,622.420776 802.551636,626.789673 
	C795.386475,618.683228 788.234314,610.591492 781.350586,602.803467 
	C783.259216,600.860657 785.107727,598.979004 787.121338,596.929321 
	C792.524902,602.902039 797.980530,608.932190 804.587524,616.235046 
	C815.179077,604.236816 825.627014,592.401306 836.604980,579.965393 
	C839.577881,583.922913 841.244019,586.140930 843.055359,588.552307 
	C840.042297,591.262024 836.025757,594.874207 831.759033,598.740479 
z"/>
</svg>