<svg version="1.1" id="Layer_1" xmlns="http://www.w3.org/2000/svg" xmlns:xlink="http://www.w3.org/1999/xlink" x="0px" y="0px"
	 width="100%" viewBox="0 0 787 270" enable-background="new 0 0 787 270" xml:space="preserve">
<path fill="#000000" opacity="1.000000" stroke="none" 
	d="
M517.000000,271.000000 
	C344.707306,271.000000 172.914597,271.000000 1.060946,271.000000 
	C1.060946,181.061951 1.060946,91.123840 1.060946,1.092866 
	C263.209351,1.092866 525.418762,1.092866 787.814087,1.092866 
	C787.814087,90.999695 787.814087,180.999817 787.814087,271.000000 
	C697.790527,271.000000 607.645264,271.000000 517.000000,271.000000 
M541.665527,211.130463 
	C542.777161,211.364700 543.888733,211.598938 545.864990,211.987808 
	C547.909851,211.936264 549.954773,211.884720 552.707092,211.987366 
	C553.749084,211.324631 554.791077,210.661896 555.990479,209.569077 
	C555.990479,209.569077 556.042542,209.114029 556.751160,208.796539 
	C557.917786,207.163696 559.084473,205.530869 560.251099,203.898041 
	C558.833923,203.987686 557.416748,204.077332 555.159912,204.012451 
	C553.454346,203.970596 551.748840,203.928726 549.928284,203.412964 
	C549.740601,203.107437 549.467529,202.954117 549.093201,202.403152 
	C549.409546,201.973602 549.725891,201.544052 550.742310,201.005600 
	C561.957581,190.628754 573.172852,180.251923 584.722717,169.712830 
	C584.722717,169.712830 584.880249,169.376083 585.401611,169.048416 
	C593.362122,161.438354 601.292236,153.796112 609.291382,146.226837 
	C618.199585,137.797409 627.170593,129.434387 636.660828,120.872711 
	C637.121460,120.286560 637.582031,119.700401 638.673523,118.861649 
	C644.487122,113.255241 650.300720,107.648834 656.585876,101.928734 
	C656.890991,101.742920 657.043213,101.471397 657.675110,100.860260 
	C664.488159,94.254326 671.301270,87.648392 678.585754,80.928864 
	C678.890808,80.743118 679.042969,80.471680 679.741150,80.005653 
	C682.674255,77.449913 685.607361,74.894173 688.520935,72.355453 
	C696.422302,76.296555 704.076965,76.286682 711.721313,70.711426 
	C711.721313,70.711426 711.878540,70.380005 712.416016,70.038803 
	C717.066895,66.097603 718.059875,60.595535 718.749268,54.226616 
	C718.626465,54.113941 718.417603,54.017433 718.393005,53.886311 
	C715.245850,37.133900 699.757812,31.009703 685.827698,41.017483 
	C681.585815,44.064964 678.378662,53.253414 679.991516,58.823841 
	C680.624573,60.898163 681.257690,62.972485 681.972473,65.462471 
	C681.972473,65.462471 681.957397,65.885818 681.315979,66.147301 
	C677.839172,69.417366 674.362366,72.687431 670.265137,76.191757 
	C667.829346,78.756355 665.393555,81.320961 662.258850,83.994354 
	C647.801086,97.648727 633.343323,111.303101 618.265137,125.191750 
	C615.829346,127.756294 613.393555,130.320847 610.258850,132.994278 
	C595.801086,146.648697 581.343323,160.303116 566.265076,174.191757 
	C563.829346,176.756302 561.393555,179.320847 558.258850,181.994263 
	C553.627686,186.249222 548.996521,190.504166 544.264343,194.851913 
	C544.119263,194.228485 543.976257,193.614151 543.988037,192.382736 
	C544.006958,191.959137 544.025818,191.535522 544.735046,190.781738 
	C544.322205,188.528229 543.909302,186.274719 543.496399,184.021210 
	C542.997925,183.879288 542.499390,183.737381 542.000916,183.595459 
	C539.670227,186.177338 536.089600,188.425522 535.291138,191.416412 
	C533.971802,196.358871 534.447510,201.780502 533.857239,207.680954 
	C533.158081,209.123093 531.355347,210.965179 535.846680,210.987946 
	C537.564575,210.936371 539.282471,210.884796 541.665527,211.130463 
M644.230896,66.223778 
	C644.605713,67.148468 644.920044,68.844299 645.364624,68.879158 
	C650.066162,69.247772 654.758972,69.256485 658.740295,64.803352 
	C669.053955,54.452332 669.015137,54.896229 659.352295,44.536804 
	C654.272766,39.091084 649.005798,39.810871 641.379944,40.527515 
	C645.358276,43.950207 648.280334,46.464180 652.178345,49.817749 
	C609.114990,49.817749 567.724365,49.817749 526.353821,49.817749 
	C523.194214,38.972759 514.815002,33.510830 503.715912,35.004906 
	C496.270844,36.007099 488.426056,44.841309 488.000488,52.702362 
	C487.418640,63.451042 493.498566,71.677071 504.700165,73.641342 
	C508.535645,74.313911 513.540466,73.443855 516.742676,71.344223 
	C521.041809,68.525391 524.110535,63.829983 528.398010,59.193375 
	C568.061768,59.193375 609.292053,59.193375 651.034058,59.193375 
	C648.768555,61.685783 646.827271,63.821457 644.230896,66.223778 
M131.032043,123.668686 
	C130.103790,124.774422 129.175537,125.880150 128.247284,126.985886 
	C127.310760,125.970009 126.104797,125.095505 125.484657,123.913620 
	C122.891777,118.972015 120.429771,113.959846 118.004372,108.932739 
	C114.819077,102.330627 112.048088,95.503899 108.491814,89.111519 
	C103.650627,80.409515 98.150749,72.076607 93.104393,63.484955 
	C90.687248,59.369659 87.730186,56.694420 82.594620,56.953526 
	C78.108185,57.179882 73.525986,56.513329 69.133057,57.192215 
	C66.689850,57.569786 63.281170,59.434601 62.557503,61.440731 
	C61.392971,64.669006 62.087479,68.568871 62.001629,72.185120 
	C61.667389,86.264282 61.111984,100.342476 61.047482,114.422897 
	C60.902485,146.073822 61.005306,177.725861 60.995453,209.377457 
	C60.994358,212.897034 62.744770,214.780411 66.207375,214.985352 
	C72.599396,215.363678 79.018646,216.097580 85.378670,215.765701 
	C87.654778,215.646927 91.405746,213.139740 91.713615,211.267258 
	C93.037239,203.216782 93.785835,195.003754 93.908081,186.837433 
	C94.194008,167.735626 93.999443,148.626602 93.999443,129.420853 
	C94.471191,129.618515 94.817406,129.648865 94.922523,129.823975 
	C103.267456,143.723419 111.698067,157.573044 119.884232,171.565643 
	C125.338531,180.888687 134.590958,181.450638 139.891708,172.285599 
	C145.488968,162.607941 150.623917,152.663757 156.025391,142.871628 
	C158.742844,137.945251 161.603348,133.097794 165.001144,127.163231 
	C165.001144,148.647385 165.001129,168.784668 165.001144,188.921951 
	C165.001144,194.914017 164.680725,200.929672 165.119370,206.889450 
	C165.389999,210.566269 165.639175,214.941956 171.277267,215.087479 
	C177.510239,215.248383 183.799576,216.360764 189.949326,215.799088 
	C197.266479,215.130783 198.061386,213.573990 197.989044,206.009949 
	C197.680710,173.772537 197.311523,141.535706 197.012512,109.298218 
	C196.926010,99.970131 196.890778,90.638779 197.043808,81.312401 
	C197.124222,76.412323 197.615631,71.516006 198.007797,66.624916 
	C198.362534,62.200718 193.964371,57.054623 189.611710,57.011551 
	C184.781158,56.963745 179.947342,56.906685 175.119476,57.030228 
	C171.168015,57.131351 168.070572,58.737667 166.103287,62.434162 
	C163.615540,67.108559 160.884064,71.653381 158.252090,76.250870 
	C149.326385,91.842133 140.398224,107.431992 131.032043,123.668686 
M387.563477,213.040588 
	C388.474762,213.691422 389.339844,214.820145 390.305023,214.913422 
	C395.515747,215.417053 400.750793,215.670883 405.978271,215.997910 
	C415.338715,216.583511 417.986359,213.001266 420.682068,205.621338 
	C425.999817,191.063187 431.036011,176.399765 436.016357,161.721405 
	C440.950531,147.179123 445.639526,132.553833 450.503326,117.987404 
	C452.578613,111.772156 454.924927,105.646858 456.970367,99.422287 
	C460.362701,89.098907 463.321075,78.622864 467.028687,68.416908 
	C469.281128,62.216644 466.448547,57.030323 459.875092,57.004936 
	C454.378998,56.983707 448.855194,57.341393 443.394714,56.899754 
	C438.434204,56.498550 435.639435,59.627037 434.212280,62.998154 
	C431.236572,70.027077 429.208405,77.472298 427.013550,84.813034 
	C423.893524,95.247963 421.264984,105.837440 417.899475,116.189552 
	C413.058258,131.080994 407.743073,145.818359 402.579437,160.768387 
	C402.037750,159.862045 401.376190,159.134186 401.130737,158.285904 
	C398.639832,149.678329 396.346069,141.011841 393.741516,132.439499 
	C390.630432,122.199913 387.167938,112.067230 384.043182,101.831604 
	C380.260254,89.440002 376.726471,76.972504 372.973602,64.571526 
	C371.305328,59.058975 368.309692,57.012936 362.537415,57.002457 
	C357.207794,56.992779 351.878174,56.993450 346.548553,57.002319 
	C340.503937,57.012379 337.907135,60.308918 339.580841,66.071320 
	C341.989685,74.364510 344.492035,82.631203 347.026825,90.887001 
	C351.400330,105.131546 355.660004,119.414268 360.277832,133.579788 
	C366.217712,151.800903 372.445007,169.928528 378.586243,188.083679 
	C381.344391,196.237442 384.193939,204.360260 387.563477,213.040588 
M713.009766,157.510132 
	C701.266724,148.072052 687.871338,145.974319 673.520386,149.032867 
	C648.803406,154.300720 632.592468,177.841461 637.325439,203.865005 
	C642.296875,231.199966 670.625061,249.812378 699.027771,240.399246 
	C722.657898,232.567825 736.392334,208.668671 730.776306,184.610336 
	C728.255188,173.810516 722.996460,164.472321 713.009766,157.510132 
M515.346069,241.137589 
	C521.058716,238.498795 525.095703,234.400894 526.276184,228.332047 
	C557.321838,228.332047 587.985901,228.332047 618.649902,228.332047 
	C618.882996,228.675919 619.116089,229.019775 619.349182,229.363647 
	C616.321716,232.052673 613.294312,234.741684 610.266846,237.430710 
	C614.832214,237.942703 619.989075,238.852966 623.220520,236.772522 
	C628.649475,233.277313 632.853699,227.879883 637.752136,223.108444 
	C629.598511,216.088074 624.593506,204.964188 610.544434,209.987091 
	C613.723083,212.931854 616.746399,215.732666 620.273438,219.000153 
	C589.481812,219.000153 559.542480,219.021606 529.603516,218.921234 
	C528.415283,218.917267 526.555054,218.041367 526.150024,217.087006 
	C522.364929,208.169052 516.077759,203.522278 506.100586,203.942352 
	C497.917328,204.286926 491.540680,209.465973 488.593781,218.891617 
	C486.257141,226.365311 489.863708,234.606781 495.595123,238.786591 
	C501.332092,242.970383 507.865662,244.202423 515.346069,241.137589 
M293.327576,58.878834 
	C291.747009,58.252552 290.186615,57.155041 288.582153,57.086227 
	C283.259064,56.857925 277.920074,56.999550 272.587189,57.000008 
	C266.269836,57.000553 263.913208,58.656368 262.010620,64.833870 
	C260.034637,71.249771 258.438263,77.787544 256.320435,84.153770 
	C251.674942,98.118217 246.666763,111.962509 242.068039,125.941833 
	C238.016068,138.259140 234.329056,150.696350 230.462784,163.074966 
	C226.025558,177.281631 221.466583,191.451401 217.170380,205.700470 
	C215.465744,211.354126 217.282425,215.332794 222.496567,215.611374 
	C230.213837,216.023697 238.054688,215.435471 245.729889,214.419357 
	C247.700256,214.158493 250.116074,210.966934 250.831100,208.658356 
	C253.330582,200.588257 255.175629,192.315445 257.299805,184.000229 
	C271.721802,184.000229 285.877136,183.897171 300.026367,184.144943 
	C301.601440,184.172501 303.990753,185.876129 304.547424,187.351456 
	C306.690643,193.031479 308.396515,198.893265 309.973450,204.765701 
	C311.753143,211.393066 315.574219,215.653564 321.072632,215.943558 
	C326.058319,216.206528 331.131226,216.499069 336.054352,215.885452 
	C344.138214,214.877914 346.778748,211.954620 344.067932,204.830688 
	C341.177002,197.233246 338.435059,189.560043 336.072693,181.784821 
	C332.210266,169.072372 329.105865,156.119888 324.964203,143.504196 
	C318.076477,122.523758 310.776337,101.673988 303.320282,80.887398 
	C300.687134,73.546562 297.088806,66.551933 293.327576,58.878834 
z"/>
<path fill="#FFFFFF" opacity="1.000000" stroke="none" 
	d="
M131.251526,123.345535 
	C140.398224,107.431992 149.326385,91.842133 158.252090,76.250870 
	C160.884064,71.653381 163.615540,67.108559 166.103287,62.434162 
	C168.070572,58.737667 171.168015,57.131351 175.119476,57.030228 
	C179.947342,56.906685 184.781158,56.963745 189.611710,57.011551 
	C193.964371,57.054623 198.362534,62.200718 198.007797,66.624916 
	C197.615631,71.516006 197.124222,76.412323 197.043808,81.312401 
	C196.890778,90.638779 196.926010,99.970131 197.012512,109.298218 
	C197.311523,141.535706 197.680710,173.772537 197.989044,206.009949 
	C198.061386,213.573990 197.266479,215.130783 189.949326,215.799088 
	C183.799576,216.360764 177.510239,215.248383 171.277267,215.087479 
	C165.639175,214.941956 165.389999,210.566269 165.119370,206.889450 
	C164.680725,200.929672 165.001144,194.914017 165.001144,188.921951 
	C165.001129,168.784668 165.001144,148.647385 165.001144,127.163231 
	C161.603348,133.097794 158.742844,137.945251 156.025391,142.871628 
	C150.623917,152.663757 145.488968,162.607941 139.891708,172.285599 
	C134.590958,181.450638 125.338531,180.888687 119.884232,171.565643 
	C111.698067,157.573044 103.267456,143.723419 94.922523,129.823975 
	C94.817406,129.648865 94.471191,129.618515 93.999443,129.420853 
	C93.999443,148.626602 94.194008,167.735626 93.908081,186.837433 
	C93.785835,195.003754 93.037239,203.216782 91.713615,211.267258 
	C91.405746,213.139740 87.654778,215.646927 85.378670,215.765701 
	C79.018646,216.097580 72.599396,215.363678 66.207375,214.985352 
	C62.744770,214.780411 60.994358,212.897034 60.995453,209.377457 
	C61.005306,177.725861 60.902485,146.073822 61.047482,114.422897 
	C61.111984,100.342476 61.667389,86.264282 62.001629,72.185120 
	C62.087479,68.568871 61.392971,64.669006 62.557503,61.440731 
	C63.281170,59.434601 66.689850,57.569786 69.133057,57.192215 
	C73.525986,56.513329 78.108185,57.179882 82.594620,56.953526 
	C87.730186,56.694420 90.687248,59.369659 93.104393,63.484955 
	C98.150749,72.076607 103.650627,80.409515 108.491814,89.111519 
	C112.048088,95.503899 114.819077,102.330627 118.004372,108.932739 
	C120.429771,113.959846 122.891777,118.972015 125.484657,123.913620 
	C126.104797,125.095505 127.310760,125.970009 128.247284,126.985886 
	C129.175537,125.880150 130.103790,124.774422 131.251526,123.345535 
z"/>
<path fill="#FFFFFF" opacity="1.000000" stroke="none" 
	d="
M387.282745,212.768860 
	C384.193939,204.360260 381.344391,196.237442 378.586243,188.083679 
	C372.445007,169.928528 366.217712,151.800903 360.277832,133.579788 
	C355.660004,119.414268 351.400330,105.131546 347.026825,90.887001 
	C344.492035,82.631203 341.989685,74.364510 339.580841,66.071320 
	C337.907135,60.308918 340.503937,57.012379 346.548553,57.002319 
	C351.878174,56.993450 357.207794,56.992779 362.537415,57.002457 
	C368.309692,57.012936 371.305328,59.058975 372.973602,64.571526 
	C376.726471,76.972504 380.260254,89.440002 384.043182,101.831604 
	C387.167938,112.067230 390.630432,122.199913 393.741516,132.439499 
	C396.346069,141.011841 398.639832,149.678329 401.130737,158.285904 
	C401.376190,159.134186 402.037750,159.862045 402.579437,160.768387 
	C407.743073,145.818359 413.058258,131.080994 417.899475,116.189552 
	C421.264984,105.837440 423.893524,95.247963 427.013550,84.813034 
	C429.208405,77.472298 431.236572,70.027077 434.212280,62.998154 
	C435.639435,59.627037 438.434204,56.498550 443.394714,56.899754 
	C448.855194,57.341393 454.378998,56.983707 459.875092,57.004936 
	C466.448547,57.030323 469.281128,62.216644 467.028687,68.416908 
	C463.321075,78.622864 460.362701,89.098907 456.970367,99.422287 
	C454.924927,105.646858 452.578613,111.772156 450.503326,117.987404 
	C445.639526,132.553833 440.950531,147.179123 436.016357,161.721405 
	C431.036011,176.399765 425.999817,191.063187 420.682068,205.621338 
	C417.986359,213.001266 415.338715,216.583511 405.978271,215.997910 
	C400.750793,215.670883 395.515747,215.417053 390.305023,214.913422 
	C389.339844,214.820145 388.474762,213.691422 387.282745,212.768860 
z"/>
<path fill="#FFFFFF" opacity="1.000000" stroke="none" 
	d="
M713.299683,157.737000 
	C722.996460,164.472321 728.255188,173.810516 730.776306,184.610336 
	C736.392334,208.668671 722.657898,232.567825 699.027771,240.399246 
	C670.625061,249.812378 642.296875,231.199966 637.325439,203.865005 
	C632.592468,177.841461 648.803406,154.300720 673.520386,149.032867 
	C687.871338,145.974319 701.266724,148.072052 713.299683,157.737000 
M670.263000,202.806122 
	C666.538574,198.907654 662.814148,195.009171 658.968445,190.983749 
	C657.229858,192.955261 655.426270,195.000595 653.593323,197.079132 
	C660.315979,204.678970 667.438782,212.731201 674.665894,220.901352 
	C688.429688,207.752350 702.172668,194.623306 715.143616,182.231781 
	C713.346863,180.155991 711.533569,178.061096 709.667419,175.905151 
	C703.444580,181.653137 697.279358,187.347885 690.365540,193.025696 
	C687.627869,194.917770 684.261169,196.315308 682.296265,198.814850 
	C679.150635,202.816483 676.365417,206.071320 670.263000,202.806122 
z"/>
<path fill="#FFFFFF" opacity="1.000000" stroke="none" 
	d="
M644.886047,65.957138 
	C646.827271,63.821457 648.768555,61.685783 651.034058,59.193375 
	C609.292053,59.193375 568.061768,59.193375 528.398010,59.193375 
	C524.110535,63.829983 521.041809,68.525391 516.742676,71.344223 
	C513.540466,73.443855 508.535645,74.313911 504.700165,73.641342 
	C493.498566,71.677071 487.418640,63.451042 488.000488,52.702362 
	C488.426056,44.841309 496.270844,36.007099 503.715912,35.004906 
	C514.815002,33.510830 523.194214,38.972759 526.353821,49.817749 
	C567.724365,49.817749 609.114990,49.817749 652.178345,49.817749 
	C648.280334,46.464180 645.358276,43.950207 641.379944,40.527515 
	C649.005798,39.810871 654.272766,39.091084 659.352295,44.536804 
	C669.015137,54.896229 669.053955,54.452332 658.026367,64.916641 
	C653.170288,65.339005 649.028137,65.648071 644.886047,65.957138 
z"/>
<path fill="#FFFFFF" opacity="1.000000" stroke="none" 
	d="
M515.070435,241.435760 
	C507.865662,244.202423 501.332092,242.970383 495.595123,238.786591 
	C489.863708,234.606781 486.257141,226.365311 488.593781,218.891617 
	C491.540680,209.465973 497.917328,204.286926 506.100586,203.942352 
	C516.077759,203.522278 522.364929,208.169052 526.150024,217.087006 
	C526.555054,218.041367 528.415283,218.917267 529.603516,218.921234 
	C559.542480,219.021606 589.481812,219.000153 620.273438,219.000153 
	C616.746399,215.732666 613.723083,212.931854 610.544434,209.987091 
	C624.593506,204.964188 629.598511,216.088074 637.752136,223.108444 
	C632.853699,227.879883 628.649475,233.277313 623.220520,236.772522 
	C619.989075,238.852966 614.832214,237.942703 610.266846,237.430710 
	C613.294312,234.741684 616.321716,232.052673 619.349182,229.363647 
	C619.116089,229.019775 618.882996,228.675919 618.649902,228.332047 
	C587.985901,228.332047 557.321838,228.332047 526.276184,228.332047 
	C525.095703,234.400894 521.058716,238.498795 515.070435,241.435760 
z"/>
<path fill="#FFFFFF" opacity="1.000000" stroke="none" 
	d="
M544.044739,191.111923 
	C544.025818,191.535522 544.006958,191.959137 543.566895,192.771088 
	C542.991333,194.275925 542.836853,195.392395 542.682373,196.508865 
	C543.906860,196.365280 545.471252,196.652649 546.295959,196.002167 
	C549.545410,193.439240 552.743408,190.754089 555.591919,187.763260 
	C557.104065,186.175629 557.860291,183.867981 558.957764,181.885376 
	C561.393555,179.320847 563.829346,176.756302 566.964355,174.085876 
	C569.630249,172.965347 571.939819,172.322678 573.508667,170.876465 
	C584.741882,160.521469 595.889832,150.070801 606.889465,139.468582 
	C608.688904,137.734146 609.623474,135.102417 610.957764,132.885376 
	C613.393555,130.320847 615.829346,127.756294 618.964355,125.085869 
	C621.621338,123.974350 623.922729,123.341362 625.481873,121.903503 
	C636.773438,111.490334 647.978333,100.980225 659.039001,90.322716 
	C660.788452,88.636978 661.673218,86.053787 662.957764,83.885544 
	C665.393555,81.320961 667.829346,78.756355 670.964539,76.085876 
	C676.344482,75.291763 681.154541,70.574799 681.957397,65.885818 
	C681.957397,65.885818 681.972473,65.462471 682.222168,65.026016 
	C681.609741,62.407150 680.747498,60.224739 679.885254,58.042320 
	C678.378662,53.253414 681.585815,44.064964 685.827698,41.017483 
	C699.757812,31.009703 715.245850,37.133900 718.393005,53.886311 
	C718.417603,54.017433 718.626465,54.113941 718.451294,54.679714 
	C716.061707,60.215210 713.970093,65.297607 711.878540,70.380005 
	C711.878540,70.380005 711.721313,70.711426 711.190979,70.583572 
	C703.827637,70.640068 696.994873,70.950844 690.161560,70.964676 
	C685.548767,70.974022 679.871521,75.435585 679.042236,80.114540 
	C679.042969,80.471680 678.890808,80.743118 677.977539,80.977448 
	C670.620911,87.064888 663.858521,93.088356 657.164673,99.187096 
	C656.822693,99.498695 657.069824,100.456970 657.042603,101.114159 
	C657.043213,101.471397 656.890991,101.742920 655.972534,101.977989 
	C654.256104,102.346687 652.849792,102.340393 652.099487,103.038841 
	C647.481628,107.338020 642.967163,111.752495 638.548584,116.256493 
	C637.989685,116.826241 638.192627,118.143356 638.042603,119.114235 
	C637.582031,119.700401 637.121460,120.286560 635.998535,120.946358 
	C633.491272,121.913040 631.315369,122.443138 629.863037,123.766975 
	C625.447510,127.791847 621.389099,132.205231 617.051086,136.319107 
	C606.715942,146.120270 596.268188,155.802979 585.978149,165.650848 
	C585.166870,166.427277 585.225769,168.112961 584.880249,169.376099 
	C584.880249,169.376083 584.722717,169.712830 584.234863,169.588409 
	C582.148193,170.161880 580.203857,170.491669 579.005798,171.616425 
	C570.088318,179.988098 561.287720,188.485611 552.541931,197.037155 
	C551.436523,198.117966 550.862427,199.742096 550.042175,201.114502 
	C549.725891,201.544052 549.409546,201.973602 548.865051,202.828979 
	C548.616272,203.664749 548.595642,204.074707 548.575073,204.484665 
	C549.064453,204.285400 549.553894,204.086136 550.043274,203.886871 
	C551.748840,203.928726 553.454346,203.970596 555.579956,204.501846 
	C556.014160,206.365509 556.028381,207.739761 556.042542,209.114029 
	C556.042542,209.114029 555.990479,209.569077 555.528625,209.784424 
	C554.044495,209.999832 553.022278,209.999924 551.743286,209.719711 
	C549.324341,209.626282 547.162170,209.813141 544.600159,210.000000 
	C543.133545,210.000000 542.066772,210.000000 540.933594,209.640747 
	C538.166260,206.981293 536.155579,207.291245 534.999634,210.833252 
	C531.355347,210.965179 533.158081,209.123093 534.360352,207.268433 
	C535.531982,205.285782 536.510132,203.771194 536.803711,202.133850 
	C537.398193,198.818176 537.185852,195.309067 538.115845,192.115479 
	C539.131409,188.628052 541.406311,187.549194 544.044739,191.111923 
z"/>
<path fill="#FFFFFF" opacity="1.000000" stroke="none" 
	d="
M293.629395,59.139038 
	C297.088806,66.551933 300.687134,73.546562 303.320282,80.887398 
	C310.776337,101.673988 318.076477,122.523758 324.964203,143.504196 
	C329.105865,156.119888 332.210266,169.072372 336.072693,181.784821 
	C338.435059,189.560043 341.177002,197.233246 344.067932,204.830688 
	C346.778748,211.954620 344.138214,214.877914 336.054352,215.885452 
	C331.131226,216.499069 326.058319,216.206528 321.072632,215.943558 
	C315.574219,215.653564 311.753143,211.393066 309.973450,204.765701 
	C308.396515,198.893265 306.690643,193.031479 304.547424,187.351456 
	C303.990753,185.876129 301.601440,184.172501 300.026367,184.144943 
	C285.877136,183.897171 271.721802,184.000229 257.299805,184.000229 
	C255.175629,192.315445 253.330582,200.588257 250.831100,208.658356 
	C250.116074,210.966934 247.700256,214.158493 245.729889,214.419357 
	C238.054688,215.435471 230.213837,216.023697 222.496567,215.611374 
	C217.282425,215.332794 215.465744,211.354126 217.170380,205.700470 
	C221.466583,191.451401 226.025558,177.281631 230.462784,163.074966 
	C234.329056,150.696350 238.016068,138.259140 242.068039,125.941833 
	C246.666763,111.962509 251.674942,98.118217 256.320435,84.153770 
	C258.438263,77.787544 260.034637,71.249771 262.010620,64.833870 
	C263.913208,58.656368 266.269836,57.000553 272.587189,57.000008 
	C277.920074,56.999550 283.259064,56.857925 288.582153,57.086227 
	C290.186615,57.155041 291.747009,58.252552 293.629395,59.139038 
M258.000824,86.497444 
	C257.308350,88.530586 256.583679,90.553406 255.929031,92.598656 
	C253.110031,101.406036 250.415054,110.254608 247.481293,119.023407 
	C243.119385,132.060883 238.313919,144.956024 234.210037,158.072174 
	C229.237030,173.966217 224.844437,190.041138 220.098236,206.007355 
	C218.776367,210.454041 220.047348,212.785416 224.678329,212.947983 
	C230.003418,213.134918 235.344589,213.115417 240.670517,212.937973 
	C244.219681,212.819702 247.126831,211.381363 248.182861,207.582718 
	C249.807861,201.737457 251.723831,195.950607 252.942123,190.020981 
	C254.194031,183.927750 255.891922,182.038498 262.154968,182.014313 
	C274.484619,181.966705 286.815735,182.098404 299.143738,181.947433 
	C303.504211,181.894043 306.048035,183.864944 307.339355,187.771942 
	C309.289001,193.670746 311.165314,199.593872 313.056152,205.511993 
	C314.517944,210.087311 317.345032,212.956467 322.408661,212.992111 
	C326.907135,213.023773 331.409210,213.103836 335.903900,212.969025 
	C340.826843,212.821365 343.044891,210.009628 341.591919,205.398972 
	C338.953796,197.027206 335.859406,188.798950 333.235077,180.423187 
	C329.681915,169.082764 326.396698,157.658447 322.988007,146.272659 
	C320.480133,137.895554 318.230255,129.428207 315.365204,121.174706 
	C312.620422,113.267616 309.066254,105.645081 306.167358,97.786972 
	C302.792511,88.638786 299.983429,79.278290 296.490051,70.178368 
	C292.367279,59.438786 291.396210,59.000000 279.993103,59.000000 
	C278.160278,58.999996 276.327484,58.997272 274.494659,59.000500 
	C268.215881,59.011559 265.666016,61.143108 263.935913,67.227898 
	C262.170288,73.437698 260.122131,79.567162 258.000824,86.497444 
z"/>
<path fill="#FFFFFF" opacity="1.000000" stroke="none" 
	d="
M585.140991,169.212250 
	C585.225769,168.112961 585.166870,166.427277 585.978149,165.650848 
	C596.268188,155.802979 606.715942,146.120270 617.051086,136.319107 
	C621.389099,132.205231 625.447510,127.791847 629.863037,123.766975 
	C631.315369,122.443138 633.491272,121.913040 635.725342,121.031235 
	C627.170593,129.434387 618.199585,137.797409 609.291382,146.226837 
	C601.292236,153.796112 593.362122,161.438354 585.140991,169.212250 
z"/>
<path fill="#FFFFFF" opacity="1.000000" stroke="none" 
	d="
M662.608276,83.939941 
	C661.673218,86.053787 660.788452,88.636978 659.039001,90.322716 
	C647.978333,100.980225 636.773438,111.490334 625.481873,121.903503 
	C623.922729,123.341362 621.621338,123.974350 619.274536,124.968735 
	C633.343323,111.303101 647.801086,97.648727 662.608276,83.939941 
z"/>
<path fill="#FFFFFF" opacity="1.000000" stroke="none" 
	d="
M610.608276,132.939819 
	C609.623474,135.102417 608.688904,137.734146 606.889465,139.468582 
	C595.889832,150.070801 584.741882,160.521469 573.508667,170.876465 
	C571.939819,172.322678 569.630249,172.965347 567.274536,173.968750 
	C581.343323,160.303116 595.801086,146.648697 610.608276,132.939819 
z"/>
<path fill="#FFFFFF" opacity="1.000000" stroke="none" 
	d="
M550.392212,201.060059 
	C550.862427,199.742096 551.436523,198.117966 552.541931,197.037155 
	C561.287720,188.485611 570.088318,179.988098 579.005798,171.616425 
	C580.203857,170.491669 582.148193,170.161880 584.067627,169.669525 
	C573.172852,180.251923 561.957581,190.628754 550.392212,201.060059 
z"/>
<path fill="#FFFFFF" opacity="1.000000" stroke="none" 
	d="
M679.391724,80.060097 
	C679.871521,75.435585 685.548767,70.974022 690.161560,70.964676 
	C696.994873,70.950844 703.827637,70.640068 711.026367,70.664574 
	C704.076965,76.286682 696.422302,76.296555 688.520935,72.355453 
	C685.607361,74.894173 682.674255,77.449913 679.391724,80.060097 
z"/>
<path fill="#FFFFFF" opacity="1.000000" stroke="none" 
	d="
M544.389893,190.946838 
	C541.406311,187.549194 539.131409,188.628052 538.115845,192.115479 
	C537.185852,195.309067 537.398193,198.818176 536.803711,202.133850 
	C536.510132,203.771194 535.531982,205.285782 534.515137,206.928070 
	C534.447510,201.780502 533.971802,196.358871 535.291138,191.416412 
	C536.089600,188.425522 539.670227,186.177338 542.000916,183.595459 
	C542.499390,183.737381 542.997925,183.879288 543.496399,184.021210 
	C543.909302,186.274719 544.322205,188.528229 544.389893,190.946838 
z"/>
<path fill="#FFFFFF" opacity="1.000000" stroke="none" 
	d="
M657.358887,100.987213 
	C657.069824,100.456970 656.822693,99.498695 657.164673,99.187096 
	C663.858521,93.088356 670.620911,87.064888 677.741821,81.034241 
	C671.301270,87.648392 664.488159,94.254326 657.358887,100.987213 
z"/>
<path fill="#FFFFFF" opacity="1.000000" stroke="none" 
	d="
M638.358032,118.987938 
	C638.192627,118.143356 637.989685,116.826241 638.548584,116.256493 
	C642.967163,111.752495 647.481628,107.338020 652.099487,103.038841 
	C652.849792,102.340393 654.256104,102.346687 655.736755,102.034836 
	C650.300720,107.648834 644.487122,113.255241 638.358032,118.987938 
z"/>
<path fill="#FFFFFF" opacity="1.000000" stroke="none" 
	d="
M558.608276,181.939819 
	C557.860291,183.867981 557.104065,186.175629 555.591919,187.763260 
	C552.743408,190.754089 549.545410,193.439240 546.295959,196.002167 
	C545.471252,196.652649 543.906860,196.365280 542.682373,196.508865 
	C542.836853,195.392395 542.991333,194.275925 543.489502,193.079620 
	C543.976257,193.614151 544.119263,194.228485 544.264343,194.851913 
	C548.996521,190.504166 553.627686,186.249222 558.608276,181.939819 
z"/>
<path fill="#FFFFFF" opacity="1.000000" stroke="none" 
	d="
M712.147278,70.209404 
	C713.970093,65.297607 716.061707,60.215210 718.493286,55.066299 
	C718.059875,60.595535 717.066895,66.097603 712.147278,70.209404 
z"/>
<path fill="#FFFFFF" opacity="1.000000" stroke="none" 
	d="
M681.636719,66.016556 
	C681.154541,70.574799 676.344482,75.291763 671.274780,75.968750 
	C674.362366,72.687431 677.839172,69.417366 681.636719,66.016556 
z"/>
<path fill="#FFFFFF" opacity="1.000000" stroke="none" 
	d="
M644.558472,66.090462 
	C649.028137,65.648071 653.170288,65.339005 657.713257,65.036148 
	C654.758972,69.256485 650.066162,69.247772 645.364624,68.879158 
	C644.920044,68.844299 644.605713,67.148468 644.558472,66.090462 
z"/>
<path fill="#FFFFFF" opacity="1.000000" stroke="none" 
	d="
M545.000000,210.000000 
	C547.162170,209.813141 549.324341,209.626282 551.743286,210.025238 
	C551.999878,211.018433 551.999756,211.425797 551.999634,211.833176 
	C549.954773,211.884720 547.909851,211.936264 545.432495,211.604950 
	C545.000000,210.814743 545.000000,210.407364 545.000000,210.000000 
z"/>
<path fill="#FFFFFF" opacity="1.000000" stroke="none" 
	d="
M535.423157,210.910599 
	C536.155579,207.291245 538.166260,206.981293 540.933594,209.849060 
	C541.000000,210.416611 541.000366,210.833221 541.000366,210.833221 
	C539.282471,210.884796 537.564575,210.936371 535.423157,210.910599 
z"/>
<path fill="#FFFFFF" opacity="1.000000" stroke="none" 
	d="
M679.938354,58.433083 
	C680.747498,60.224739 681.609741,62.407150 682.181396,64.818192 
	C681.257690,62.972485 680.624573,60.898163 679.938354,58.433083 
z"/>
<path fill="#FFFFFF" opacity="1.000000" stroke="none" 
	d="
M556.396851,208.955292 
	C556.028381,207.739761 556.014160,206.365509 555.999756,204.579117 
	C557.416748,204.077332 558.833923,203.987686 560.251099,203.898041 
	C559.084473,205.530869 557.917786,207.163696 556.396851,208.955292 
z"/>
<path fill="#FFFFFF" opacity="1.000000" stroke="none" 
	d="
M541.332947,210.981842 
	C541.000366,210.833221 541.000000,210.416611 541.000000,210.208313 
	C542.066772,210.000000 543.133545,210.000000 544.600159,210.000000 
	C545.000000,210.407364 545.000000,210.814743 545.000183,211.527649 
	C543.888733,211.598938 542.777161,211.364700 541.332947,210.981842 
z"/>
<path fill="#FFFFFF" opacity="1.000000" stroke="none" 
	d="
M552.353394,211.910278 
	C551.999756,211.425797 551.999878,211.018433 552.000000,210.305527 
	C553.022278,209.999924 554.044495,209.999832 555.449951,209.999466 
	C554.791077,210.661896 553.749084,211.324631 552.353394,211.910278 
z"/>
<path fill="#FFFFFF" opacity="1.000000" stroke="none" 
	d="
M549.985779,203.649918 
	C549.553894,204.086136 549.064453,204.285400 548.575073,204.484665 
	C548.595642,204.074707 548.616272,203.664749 548.872925,203.103897 
	C549.467529,202.954117 549.740601,203.107437 549.985779,203.649918 
z"/>
<path fill="#000000" opacity="1.000000" stroke="none" 
	d="
M691.114197,193.042648 
	C697.279358,187.347885 703.444580,181.653137 709.667419,175.905151 
	C711.533569,178.061096 713.346863,180.155991 715.143616,182.231781 
	C702.172668,194.623306 688.429688,207.752350 674.665894,220.901352 
	C667.438782,212.731201 660.315979,204.678970 653.593323,197.079132 
	C655.426270,195.000595 657.229858,192.955261 658.968445,190.983749 
	C662.814148,195.009171 666.538574,198.907654 670.628540,203.272247 
	C672.412781,205.506775 673.831543,207.275162 674.627441,208.267242 
	C680.195862,203.125122 685.655029,198.083908 691.114197,193.042648 
z"/>
<path fill="#FFFFFF" opacity="1.000000" stroke="none" 
	d="
M690.739868,193.034180 
	C685.655029,198.083908 680.195862,203.125122 674.627441,208.267242 
	C673.831543,207.275162 672.412781,205.506775 670.939819,203.390335 
	C676.365417,206.071320 679.150635,202.816483 682.296265,198.814850 
	C684.261169,196.315308 687.627869,194.917770 690.739868,193.034180 
z"/>
<path fill="#FFFFFF" opacity="1.000000" stroke="none" 
	d="
M258.099243,86.114624 
	C260.122131,79.567162 262.170288,73.437698 263.935913,67.227898 
	C265.666016,61.143108 268.215881,59.011559 274.494659,59.000500 
	C276.327484,58.997272 278.160278,58.999996 279.993103,59.000000 
	C291.396210,59.000000 292.367279,59.438786 296.490051,70.178368 
	C299.983429,79.278290 302.792511,88.638786 306.167358,97.786972 
	C309.066254,105.645081 312.620422,113.267616 315.365204,121.174706 
	C318.230255,129.428207 320.480133,137.895554 322.988007,146.272659 
	C326.396698,157.658447 329.681915,169.082764 333.235077,180.423187 
	C335.859406,188.798950 338.953796,197.027206 341.591919,205.398972 
	C343.044891,210.009628 340.826843,212.821365 335.903900,212.969025 
	C331.409210,213.103836 326.907135,213.023773 322.408661,212.992111 
	C317.345032,212.956467 314.517944,210.087311 313.056152,205.511993 
	C311.165314,199.593872 309.289001,193.670746 307.339355,187.771942 
	C306.048035,183.864944 303.504211,181.894043 299.143738,181.947433 
	C286.815735,182.098404 274.484619,181.966705 262.154968,182.014313 
	C255.891922,182.038498 254.194031,183.927750 252.942123,190.020981 
	C251.723831,195.950607 249.807861,201.737457 248.182861,207.582718 
	C247.126831,211.381363 244.219681,212.819702 240.670517,212.937973 
	C235.344589,213.115417 230.003418,213.134918 224.678329,212.947983 
	C220.047348,212.785416 218.776367,210.454041 220.098236,206.007355 
	C224.844437,190.041138 229.237030,173.966217 234.210037,158.072174 
	C238.313919,144.956024 243.119385,132.060883 247.481293,119.023407 
	C250.415054,110.254608 253.110031,101.406036 255.929031,92.598656 
	C256.583679,90.553406 257.308350,88.530586 258.099243,86.114624 
M266.996460,150.770706 
	C276.053253,150.847290 285.110046,150.923874 294.877808,150.827774 
	C294.987091,149.037018 295.595764,147.097443 295.114563,145.482681 
	C293.496948,140.054916 291.558044,134.718445 289.615662,129.393127 
	C287.525818,123.663490 285.449585,117.917656 283.011383,112.334381 
	C282.415466,110.969765 280.429596,110.212128 279.082794,109.175423 
	C278.058716,110.526115 276.587280,111.728447 276.082214,113.251282 
	C272.458405,124.177399 268.968445,135.149765 265.641541,146.169495 
	C265.321472,147.229630 266.402557,148.712784 266.996460,150.770706 
z"/>
<path fill="#000000" opacity="1.000000" stroke="none" 
	d="
M294.166840,151.000458 
	C285.110046,150.923874 276.053253,150.847290 267.072876,150.040955 
	C267.765930,148.020325 268.596008,146.786545 268.959381,145.427963 
	C270.071930,141.268600 270.688904,136.952972 272.078003,132.896545 
	C274.523346,125.755577 277.397827,118.761574 280.091766,111.708275 
	C284.695831,124.561081 289.431335,137.780762 294.166840,151.000458 
z"/>
<path fill="#FFFFFF" opacity="1.000000" stroke="none" 
	d="
M294.522339,150.914124 
	C289.431335,137.780762 284.695831,124.561081 280.091766,111.708275 
	C277.397827,118.761574 274.523346,125.755577 272.078003,132.896545 
	C270.688904,136.952972 270.071930,141.268600 268.959381,145.427963 
	C268.596008,146.786545 267.765930,148.020325 266.991272,149.655365 
	C266.402557,148.712784 265.321472,147.229630 265.641541,146.169495 
	C268.968445,135.149765 272.458405,124.177399 276.082214,113.251282 
	C276.587280,111.728447 278.058716,110.526115 279.082794,109.175423 
	C280.429596,110.212128 282.415466,110.969765 283.011383,112.334381 
	C285.449585,117.917656 287.525818,123.663490 289.615662,129.393127 
	C291.558044,134.718445 293.496948,140.054916 295.114563,145.482681 
	C295.595764,147.097443 294.987091,149.037018 294.522339,150.914124 
z"/>
</svg>