<svg version="1.1" id="Layer_1" xmlns="http://www.w3.org/2000/svg" xmlns:xlink="http://www.w3.org/1999/xlink" x="0px" y="0px"
	 width="100%" viewBox="0 0 269 305" enable-background="new 0 0 269 305" xml:space="preserve">
<path fill="#000000" opacity="1.000000" stroke="none" 
	d="
M1.000000,115.000000 
	C1.000000,76.666679 1.000000,38.833355 1.000000,1.000025 
	C90.666626,1.000017 180.333252,1.000017 269.999908,1.000008 
	C269.999939,102.666595 269.999939,204.333191 269.999969,305.999817 
	C180.333435,305.999878 90.666855,305.999878 1.000143,305.999939 
	C1.000000,242.500000 1.000000,179.000000 1.000000,115.000000 
M141.032257,14.962266 
	C141.032257,14.962266 141.094620,14.939475 140.780716,14.297987 
	C138.371246,11.901731 135.954147,11.706975 132.925888,13.527040 
	C109.040024,27.883087 85.074036,42.105759 61.153397,56.404095 
	C47.581028,64.516846 34.030487,72.666664 20.530468,80.898766 
	C19.496544,81.529236 18.943325,82.948029 18.030809,84.928963 
	C18.020540,102.543434 17.984718,120.157944 18.005844,137.772385 
	C18.039526,165.852646 18.111109,193.932861 18.124424,222.511993 
	C18.408152,222.619110 18.691879,222.726227 19.568676,223.104126 
	C27.423262,228.077621 35.175983,233.221298 43.150558,237.994308 
	C73.124489,255.934616 103.150673,273.788147 133.248871,291.518738 
	C134.761383,292.409729 137.331116,292.422302 139.056381,291.825562 
	C141.785507,290.881653 144.251297,289.133606 146.767807,287.624603 
	C165.391052,276.457458 183.971008,265.217896 202.620773,254.095322 
	C218.597855,244.566696 234.642334,235.150909 250.674454,225.714859 
	C253.702408,223.932693 255.169556,221.825180 255.128677,217.877335 
	C254.873611,193.233749 255.021317,168.586166 254.993347,143.939972 
	C254.970322,123.626869 254.888885,103.313828 254.740051,82.316826 
	C245.533096,76.738449 236.343216,71.131668 227.115692,65.587524 
	C207.096771,53.559593 187.097412,41.498257 167.010025,29.585503 
	C158.461914,24.516068 149.713135,19.784956 141.032257,14.962266 
z"/>
<path fill="#ED1C24" opacity="1.000000" stroke="none" 
	d="
M18.166664,222.013107 
	C18.111109,193.932861 18.039526,165.852646 18.005844,137.772385 
	C17.984718,120.157944 18.020540,102.543434 18.460115,84.437202 
	C25.028101,80.708481 31.316767,77.724724 37.280361,74.192200 
	C68.688530,55.587593 99.985359,36.794865 131.418427,18.232704 
	C134.290497,16.536659 137.852829,16.009451 141.094620,14.939476 
	C141.094620,14.939475 141.032257,14.962266 141.171967,15.244084 
	C142.945862,16.890581 144.431717,18.503197 146.236374,19.582911 
	C175.250137,36.941521 204.267822,54.294384 233.376373,71.493233 
	C240.357834,75.618256 247.672119,79.179970 254.833344,83.000755 
	C254.888885,103.313828 254.970322,123.626869 254.993347,143.939972 
	C255.021317,168.586166 254.873611,193.233749 255.128677,217.877335 
	C255.169556,221.825180 253.702408,223.932693 250.674454,225.714859 
	C234.642334,235.150909 218.597855,244.566696 202.620773,254.095322 
	C183.971008,265.217896 165.391052,276.457458 146.767807,287.624603 
	C144.251297,289.133606 141.785507,290.881653 139.056381,291.825562 
	C137.331116,292.422302 134.761383,292.409729 133.248871,291.518738 
	C103.150673,273.788147 73.124489,255.934616 43.150558,237.994308 
	C35.175983,233.221298 27.423262,228.077621 19.146202,222.823441 
	C18.549387,222.354279 18.363699,222.177719 18.166664,222.013107 
z"/>
<path fill="#ED1C24" opacity="1.000000" stroke="none" 
	d="
M140.937668,14.618731 
	C137.852829,16.009451 134.290497,16.536659 131.418427,18.232704 
	C99.985359,36.794865 68.688530,55.587593 37.280361,74.192200 
	C31.316767,77.724724 25.028101,80.708481 18.528046,83.972916 
	C18.943325,82.948029 19.496544,81.529236 20.530468,80.898766 
	C34.030487,72.666664 47.581028,64.516846 61.153397,56.404095 
	C85.074036,42.105759 109.040024,27.883087 132.925888,13.527040 
	C135.954147,11.706975 138.371246,11.901731 140.937668,14.618731 
z"/>
<path fill="#ED1C24" opacity="1.000000" stroke="none" 
	d="
M254.786697,82.658791 
	C247.672119,79.179970 240.357834,75.618256 233.376373,71.493233 
	C204.267822,54.294384 175.250137,36.941521 146.236374,19.582911 
	C144.431717,18.503197 142.945862,16.890581 141.183624,15.212998 
	C149.713135,19.784956 158.461914,24.516068 167.010025,29.585503 
	C187.097412,41.498257 207.096771,53.559593 227.115692,65.587524 
	C236.343216,71.131668 245.533096,76.738449 254.786697,82.658791 
z"/>
<path fill="#ED1C24" opacity="1.000000" stroke="none" 
	d="
M18.145546,222.262543 
	C18.363699,222.177719 18.549387,222.354279 18.849667,222.688049 
	C18.691879,222.726227 18.408152,222.619110 18.145546,222.262543 
z"/>
</svg>