<svg version="1.1" id="Layer_1" xmlns="http://www.w3.org/2000/svg" xmlns:xlink="http://www.w3.org/1999/xlink" x="0px" y="0px"
	 width="100%" viewBox="0 0 301 355" enable-background="new 0 0 301 355" xml:space="preserve">
<path fill="#000000" opacity="1.000000" stroke="none" 
	d="
M155.000000,356.000000 
	C103.333351,356.000000 52.166702,356.000000 1.000041,356.000000 
	C1.000027,237.666733 1.000027,119.333458 1.000014,1.000136 
	C101.333244,1.000091 201.666489,1.000091 301.999817,1.000046 
	C301.999878,119.333191 301.999878,237.666382 301.999939,355.999786 
	C253.166672,356.000000 204.333328,356.000000 155.000000,356.000000 
M111.040207,318.442474 
	C122.557693,325.302521 134.067535,332.175446 145.596893,339.015503 
	C149.585251,341.381683 153.422913,342.575439 157.963989,339.628906 
	C165.180771,334.946259 172.723480,330.763031 180.158173,326.419617 
	C203.319794,312.888397 226.494446,299.379517 249.666046,285.865387 
	C262.252167,278.524933 274.748138,271.021149 287.496033,263.973145 
	C290.736633,262.181488 292.051758,260.323730 292.046509,256.713348 
	C291.970642,204.564835 291.966461,152.416168 292.056702,100.267723 
	C292.062805,96.751373 290.612091,94.922676 287.702118,93.255493 
	C266.437103,81.072189 245.222717,68.799263 224.063110,56.433514 
	C200.196594,42.485844 176.404083,28.411549 152.637756,14.426684 
	C121.229370,32.729473 90.034172,50.891739 58.856453,69.083961 
	C45.269070,77.012207 31.719194,85.004730 18.148403,92.961441 
	C15.263276,94.653030 12.879941,96.167786 12.893932,100.430214 
	C13.065109,152.578247 13.027353,204.727081 12.955063,256.875580 
	C12.950539,260.139343 14.209219,261.957947 16.991175,263.562286 
	C36.331097,274.715637 55.573391,286.038147 74.858276,297.287109 
	C86.715424,304.203461 98.592529,311.085571 111.040207,318.442474 
z"/>
<path fill="#008000" opacity="1.000000" stroke="none" 
	d="
M110.750443,318.212769 
	C98.592529,311.085571 86.715424,304.203461 74.858276,297.287109 
	C55.573391,286.038147 36.331097,274.715637 16.991175,263.562286 
	C14.209219,261.957947 12.950539,260.139343 12.955063,256.875580 
	C13.027353,204.727081 13.065109,152.578247 12.893932,100.430214 
	C12.879941,96.167786 15.263276,94.653030 18.148403,92.961441 
	C31.719194,85.004730 45.269070,77.012207 58.856453,69.083961 
	C90.034172,50.891739 121.229370,32.729473 152.637756,14.426684 
	C176.404083,28.411549 200.196594,42.485844 224.063110,56.433514 
	C245.222717,68.799263 266.437103,81.072189 287.702118,93.255493 
	C290.612091,94.922676 292.062805,96.751373 292.056702,100.267723 
	C291.966461,152.416168 291.970642,204.564835 292.046509,256.713348 
	C292.051758,260.323730 290.736633,262.181488 287.496033,263.973145 
	C274.748138,271.021149 262.252167,278.524933 249.666046,285.865387 
	C226.494446,299.379517 203.319794,312.888397 180.158173,326.419617 
	C172.723480,330.763031 165.180771,334.946259 157.963989,339.628906 
	C153.422913,342.575439 149.585251,341.381683 145.596893,339.015503 
	C134.067535,332.175446 122.557693,325.302521 110.750443,318.212769 
z"/>
</svg>