<svg version="1.1" id="Layer_1" xmlns="http://www.w3.org/2000/svg" xmlns:xlink="http://www.w3.org/1999/xlink" x="0px" y="0px"
	 width="100%" viewBox="0 0 301 355" enable-background="new 0 0 301 355" xml:space="preserve">
<path fill="#000000" opacity="1.000000" stroke="none" 
	d="
M155.000000,356.000000 
	C103.333351,356.000000 52.166702,356.000000 1.000041,356.000000 
	C1.000027,237.666733 1.000027,119.333458 1.000014,1.000136 
	C101.333244,1.000091 201.666489,1.000091 301.999817,1.000046 
	C301.999878,119.333191 301.999878,237.666382 301.999939,355.999786 
	C253.166672,356.000000 204.333328,356.000000 155.000000,356.000000 
M111.006653,318.489746 
	C122.547363,325.358032 134.086456,332.229034 145.629623,339.093231 
	C149.866135,341.612457 153.666183,342.274292 158.488571,339.318298 
	C174.067841,329.768677 190.030273,320.845673 205.809479,311.620300 
	C221.317169,302.553772 236.768661,293.391144 252.268784,284.311584 
	C264.129395,277.363953 275.916962,270.276947 287.988861,263.715271 
	C290.889435,262.138672 292.036499,260.678467 292.033722,257.568542 
	C291.986450,204.924133 292.024841,152.279602 291.896301,99.635460 
	C291.891785,97.795609 290.872742,95.106049 289.458557,94.255096 
	C276.843933,86.664742 264.021179,79.421143 251.284668,72.032356 
	C236.313614,63.347237 221.355682,54.639286 206.413818,45.904037 
	C191.742386,37.326878 177.096130,28.706656 162.443726,20.096973 
	C159.107437,18.136589 155.785614,14.586827 152.467621,14.599147 
	C149.133347,14.611527 145.826599,18.179424 142.482819,20.146795 
	C127.836349,28.764284 113.185150,37.373764 98.527367,45.972012 
	C83.731934,54.651009 68.913948,63.291634 54.129673,71.989563 
	C41.301208,79.536835 28.467575,87.077484 15.753534,94.813850 
	C14.428282,95.620255 13.117126,97.732513 13.113254,99.242256 
	C12.977820,152.052963 12.973552,204.864166 13.115942,257.674835 
	C13.120696,259.438385 14.389347,261.850830 15.835263,262.836426 
	C20.238453,265.837769 25.025640,268.273682 29.648510,270.955292 
	C44.591839,279.623505 59.533772,288.294159 74.466133,296.981262 
	C86.469574,303.964447 98.458305,310.972931 111.006653,318.489746 
z"/>
<path fill="#BDC3C7" opacity="1.000000" stroke="none" 
	d="
M110.730110,318.229950 
	C98.458305,310.972931 86.469574,303.964447 74.466133,296.981262 
	C59.533772,288.294159 44.591839,279.623505 29.648510,270.955292 
	C25.025640,268.273682 20.238453,265.837769 15.835263,262.836426 
	C14.389347,261.850830 13.120696,259.438385 13.115942,257.674835 
	C12.973552,204.864166 12.977820,152.052963 13.113254,99.242256 
	C13.117126,97.732513 14.428282,95.620255 15.753534,94.813850 
	C28.467575,87.077484 41.301208,79.536835 54.129673,71.989563 
	C68.913948,63.291634 83.731934,54.651009 98.527367,45.972012 
	C113.185150,37.373764 127.836349,28.764284 142.482819,20.146795 
	C145.826599,18.179424 149.133347,14.611527 152.467621,14.599147 
	C155.785614,14.586827 159.107437,18.136589 162.443726,20.096973 
	C177.096130,28.706656 191.742386,37.326878 206.413818,45.904037 
	C221.355682,54.639286 236.313614,63.347237 251.284668,72.032356 
	C264.021179,79.421143 276.843933,86.664742 289.458557,94.255096 
	C290.872742,95.106049 291.891785,97.795609 291.896301,99.635460 
	C292.024841,152.279602 291.986450,204.924133 292.033722,257.568542 
	C292.036499,260.678467 290.889435,262.138672 287.988861,263.715271 
	C275.916962,270.276947 264.129395,277.363953 252.268784,284.311584 
	C236.768661,293.391144 221.317169,302.553772 205.809479,311.620300 
	C190.030273,320.845673 174.067841,329.768677 158.488571,339.318298 
	C153.666183,342.274292 149.866135,341.612457 145.629623,339.093231 
	C134.086456,332.229034 122.547363,325.358032 110.730110,318.229950 
z"/>
</svg>