<svg version="1.1" id="Layer_1" xmlns="http://www.w3.org/2000/svg" xmlns:xlink="http://www.w3.org/1999/xlink" x="0px" y="0px"
	 width="100%" viewBox="0 0 301 355" enable-background="new 0 0 301 355" xml:space="preserve">
<path fill="#000000" opacity="1.000000" stroke="none" 
	d="
M155.000000,356.000000 
	C103.333351,356.000000 52.166702,356.000000 1.000041,356.000000 
	C1.000027,237.666733 1.000027,119.333458 1.000014,1.000136 
	C101.333244,1.000091 201.666489,1.000091 301.999817,1.000046 
	C301.999878,119.333191 301.999878,237.666382 301.999939,355.999786 
	C253.166672,356.000000 204.333328,356.000000 155.000000,356.000000 
M111.009003,318.480133 
	C122.608047,325.412537 134.192505,332.369507 145.813995,339.264038 
	C149.930801,341.706360 153.747543,342.213318 158.375168,339.394470 
	C174.086426,329.824188 190.108109,320.764221 205.993423,311.478943 
	C221.317276,302.521820 236.623886,293.535217 251.928925,284.546021 
	C263.301758,277.866364 274.413483,270.678284 286.142578,264.699646 
	C291.027588,262.209625 292.101898,259.516876 292.087555,254.618011 
	C291.943542,205.463486 291.862640,156.307571 292.146240,107.154259 
	C292.189392,99.675056 291.212067,94.620445 283.588074,90.718178 
	C268.246582,82.865761 253.604233,73.643700 238.702499,64.936951 
	C223.935318,56.308815 209.209900,47.609219 194.455109,38.959858 
	C180.831512,30.973627 167.201111,22.998825 153.532913,15.089499 
	C152.980621,14.769904 151.873840,14.930169 151.254944,15.276749 
	C143.586197,19.571272 135.916458,23.867388 128.331238,28.307055 
	C105.705856,41.549816 83.130714,54.878384 60.510761,68.130455 
	C46.177174,76.527878 31.830519,84.904228 17.416641,93.162468 
	C14.047870,95.092552 12.690347,97.467773 12.896349,101.466507 
	C13.264488,108.612495 12.999998,115.791084 13.000000,122.956039 
	C13.000014,167.445435 12.964424,211.934952 13.108068,256.423889 
	C13.115048,258.585999 14.079226,261.593842 15.661062,262.739075 
	C19.990301,265.873474 24.907810,268.188599 29.556908,270.889221 
	C44.591209,279.622559 59.608177,288.385773 74.634537,297.132782 
	C86.572273,304.081848 98.514008,311.024048 111.009003,318.480133 
z"/>
<path fill="#FF5700" opacity="1.000000" stroke="none" 
	d="
M110.731483,318.224731 
	C98.514008,311.024048 86.572273,304.081848 74.634537,297.132782 
	C59.608177,288.385773 44.591209,279.622559 29.556908,270.889221 
	C24.907810,268.188599 19.990301,265.873474 15.661062,262.739075 
	C14.079226,261.593842 13.115048,258.585999 13.108068,256.423889 
	C12.964424,211.934952 13.000014,167.445435 13.000000,122.956039 
	C12.999998,115.791084 13.264488,108.612495 12.896349,101.466507 
	C12.690347,97.467773 14.047870,95.092552 17.416641,93.162468 
	C31.830519,84.904228 46.177174,76.527878 60.510761,68.130455 
	C83.130714,54.878384 105.705856,41.549816 128.331238,28.307055 
	C135.916458,23.867388 143.586197,19.571272 151.254944,15.276749 
	C151.873840,14.930169 152.980621,14.769904 153.532913,15.089499 
	C167.201111,22.998825 180.831512,30.973627 194.455109,38.959858 
	C209.209900,47.609219 223.935318,56.308815 238.702499,64.936951 
	C253.604233,73.643700 268.246582,82.865761 283.588074,90.718178 
	C291.212067,94.620445 292.189392,99.675056 292.146240,107.154259 
	C291.862640,156.307571 291.943542,205.463486 292.087555,254.618011 
	C292.101898,259.516876 291.027588,262.209625 286.142578,264.699646 
	C274.413483,270.678284 263.301758,277.866364 251.928925,284.546021 
	C236.623886,293.535217 221.317276,302.521820 205.993423,311.478943 
	C190.108109,320.764221 174.086426,329.824188 158.375168,339.394470 
	C153.747543,342.213318 149.930801,341.706360 145.813995,339.264038 
	C134.192505,332.369507 122.608047,325.412537 110.731483,318.224731 
z"/>
</svg>