<svg version="1.1" id="Layer_1" xmlns="http://www.w3.org/2000/svg" xmlns:xlink="http://www.w3.org/1999/xlink" x="0px" y="0px"
	 width="100%" viewBox="0 0 800 287" enable-background="new 0 0 800 287" xml:space="preserve">
<path fill="#010101" opacity="1.000000" stroke="none" 
	d="
M503.000000,288.000000 
	C335.333344,288.000000 168.166672,288.000000 1.000000,288.000000 
	C1.000000,192.333328 1.000000,96.666664 1.000000,1.000000 
	C267.666656,1.000000 534.333313,1.000000 801.000000,1.000000 
	C801.000000,96.666664 801.000000,192.333328 801.000000,288.000000 
	C701.833313,288.000000 602.666687,288.000000 503.000000,288.000000 
M525.347656,148.810928 
	C527.752869,142.316071 531.261841,135.997375 532.332458,129.289536 
	C534.530457,115.517670 533.292358,101.948578 524.113281,90.413582 
	C513.736816,77.374001 499.012970,73.161812 483.439056,72.242233 
	C468.002441,71.330757 452.476959,71.918816 436.990387,71.861679 
	C431.540558,71.841576 426.090607,71.858475 420.551208,71.858475 
	C420.551208,120.866684 420.551208,169.375015 420.551208,218.170242 
	C432.612885,218.170242 444.258728,218.268524 455.895996,217.997726 
	C456.909302,217.974167 458.679108,215.543564 458.717072,214.192215 
	C458.964996,205.372208 458.830292,196.541489 458.824097,187.714279 
	C458.820496,182.621674 458.823395,177.529068 458.823395,171.578186 
	C465.808380,171.578186 472.112244,171.885941 478.376770,171.520218 
	C496.839844,170.442413 513.348755,165.018005 525.347656,148.810928 
M761.429138,170.030884 
	C771.092285,137.321655 780.755432,104.612419 790.524597,71.544548 
	C777.755371,71.544548 765.932983,71.440735 754.117859,71.686096 
	C752.759338,71.714310 750.546265,73.478554 750.236023,74.793434 
	C743.437195,103.602074 736.860718,132.463135 730.218201,161.308762 
	C728.729004,167.775787 727.151794,174.222519 725.615051,180.678604 
	C725.165222,180.627197 724.715393,180.575790 724.265564,180.524384 
	C715.585449,144.232971 706.905273,107.941574 698.279114,71.875641 
	C684.501770,71.875641 671.272278,71.875641 657.509155,71.875641 
	C658.017456,73.882225 658.359131,75.452217 658.812988,76.989044 
	C664.229858,95.329910 669.658142,113.667419 675.093811,132.002716 
	C683.174133,159.258774 691.278503,186.507751 699.322571,213.774506 
	C700.078186,216.335876 700.778564,218.127914 704.202515,218.068756 
	C717.528564,217.838440 730.862549,218.056030 744.188416,217.820786 
	C745.572327,217.796356 747.748474,216.124741 748.161804,214.786469 
	C752.673950,200.177017 756.907898,185.481689 761.429138,170.030884 
M636.496704,103.940262 
	C641.610352,103.940262 646.723999,103.940262 651.933716,103.940262 
	C651.933716,92.899658 651.933716,82.389175 651.933716,72.090317 
	C620.172241,72.090317 588.817932,72.090317 557.587097,72.090317 
	C557.587097,120.944572 557.587097,169.325134 557.587097,217.812973 
	C570.388611,217.812973 582.807312,217.812973 595.694336,217.812973 
	C595.790833,215.795303 595.948364,214.017319 595.949402,212.239243 
	C595.957703,198.084702 596.075928,183.927780 595.835327,169.777130 
	C595.766724,165.741043 596.722107,164.288666 601.027161,164.376877 
	C614.010315,164.642960 627.004028,164.528549 639.990051,164.329529 
	C641.512085,164.306198 644.299133,162.869247 644.325317,162.020523 
	C644.631775,152.087662 644.521851,142.141953 644.521851,131.598297 
	C628.001526,131.598297 612.113281,131.598297 596.242676,131.598297 
	C596.242676,122.089005 596.242676,113.199181 596.242676,103.940910 
	C609.569763,103.940910 622.533997,103.940910 636.496704,103.940262 
M232.992081,204.322556 
	C234.066208,181.135605 216.721313,161.878098 193.082886,161.516068 
	C170.209381,161.165756 152.220917,178.750320 151.893677,201.614670 
	C151.578812,223.613403 168.395767,242.345734 192.654358,242.702164 
	C213.803192,243.012878 230.207275,227.247620 232.992081,204.322556 
M179.938278,100.458870 
	C144.120071,134.182114 108.301865,167.905350 71.810379,202.262482 
	C71.810379,198.070084 71.810379,195.041306 71.810379,192.075485 
	C60.593861,196.632462 64.536209,206.683670 62.614803,214.737747 
	C81.695221,217.184143 80.320717,217.707382 86.669579,209.823196 
	C83.332260,209.425110 80.132675,209.043472 76.287766,208.584854 
	C77.571732,207.189026 78.278114,206.318253 79.087112,205.556427 
	C116.569260,170.260025 154.097763,135.012634 191.479843,99.610634 
	C194.490845,96.759117 196.730972,95.845238 200.882782,97.426567 
	C207.586960,99.980049 215.070557,96.713264 219.123169,90.556213 
	C222.922913,84.783333 222.482193,76.749649 218.073303,71.418236 
	C213.146301,65.460304 205.597992,63.526672 198.723175,66.461372 
	C192.133591,69.274307 187.060226,76.545631 189.111130,83.312424 
	C191.095764,89.860580 188.249588,93.068542 184.075073,96.526558 
	C182.795105,97.586830 181.654724,98.815613 179.938278,100.458870 
M158.263992,68.062096 
	C158.265198,68.831055 157.941620,69.883720 158.323135,70.320480 
	C160.093521,72.347229 162.059387,74.203209 164.763260,76.937378 
	C161.909088,76.937378 160.447845,76.937378 158.986618,76.937378 
	C126.359795,76.937439 93.732796,76.890343 61.106392,77.008293 
	C57.731182,77.020493 55.913120,76.263924 54.374958,72.919617 
	C51.158916,65.927223 42.986786,62.551178 35.941036,64.536697 
	C28.330482,66.681366 22.555719,74.260590 23.009203,81.509369 
	C23.439125,88.381523 29.757778,95.362549 36.825752,96.774277 
	C43.981457,98.203529 51.469498,94.684746 54.619438,87.812019 
	C55.941578,84.927277 57.413551,84.049164 60.523716,84.060730 
	C93.815933,84.184616 127.108795,84.135162 160.401474,84.149788 
	C161.467392,84.150253 162.533249,84.327789 164.178345,84.474396 
	C161.404678,87.411308 159.094223,89.857735 156.499954,92.604683 
	C167.096420,93.387688 170.537308,91.393242 178.728989,80.041260 
	C172.333405,75.776047 169.433640,65.978134 158.263992,68.062096 
M29.515007,239.070023 
	C40.348274,246.365921 49.808735,243.275055 56.353413,230.412827 
	C83.089500,230.412827 109.755836,230.412827 136.422165,230.412827 
	C136.837769,230.965393 137.253372,231.517960 137.668976,232.070526 
	C134.954666,233.914062 132.240356,235.757584 129.152267,237.854980 
	C141.462494,241.663040 145.060013,231.708466 151.572678,226.607819 
	C137.818909,212.238800 141.240112,213.277069 129.785645,214.753769 
	C132.135361,217.218796 134.323135,219.513916 136.674988,221.981171 
	C135.666779,222.413132 135.371704,222.650009 135.076355,222.650375 
	C109.758469,222.682663 84.440323,222.739273 59.123356,222.592453 
	C57.786472,222.584702 55.891609,221.139877 55.223225,219.859436 
	C51.713799,213.136337 46.501339,209.493393 38.791809,209.947998 
	C30.969234,210.409302 26.427542,215.191086 23.822884,222.026657 
	C21.258314,228.756989 24.643967,233.877213 29.515007,239.070023 
M317.093079,175.500000 
	C317.093079,122.517799 317.093384,69.535599 317.091278,16.553402 
	C317.091217,15.221038 317.282074,13.833323 316.962646,12.578685 
	C316.792145,11.908963 315.722198,11.048375 315.052765,11.043646 
	C314.383514,11.038918 313.263184,11.899443 313.125183,12.547699 
	C312.819275,13.984676 312.992126,15.526303 312.992065,17.025255 
	C312.990021,101.663483 312.990234,186.301712 312.990265,270.939941 
	C312.990265,271.939606 313.049438,272.943329 312.980377,273.938171 
	C312.760803,277.101898 314.167938,277.669464 317.093109,276.443604 
	C317.093109,243.094055 317.093109,209.797028 317.093079,175.500000 
z"/>
<path fill="#FBFBFB" opacity="1.000000" stroke="none" 
	d="
M525.166931,149.121902 
	C513.348755,165.018005 496.839844,170.442413 478.376770,171.520218 
	C472.112244,171.885941 465.808380,171.578186 458.823395,171.578186 
	C458.823395,177.529068 458.820496,182.621674 458.824097,187.714279 
	C458.830292,196.541489 458.964996,205.372208 458.717072,214.192215 
	C458.679108,215.543564 456.909302,217.974167 455.895996,217.997726 
	C444.258728,218.268524 432.612885,218.170242 420.551208,218.170242 
	C420.551208,169.375015 420.551208,120.866684 420.551208,71.858475 
	C426.090607,71.858475 431.540558,71.841576 436.990387,71.861679 
	C452.476959,71.918816 468.002441,71.330757 483.439056,72.242233 
	C499.012970,73.161812 513.736816,77.374001 524.113281,90.413582 
	C533.292358,101.948578 534.530457,115.517670 532.332458,129.289536 
	C531.261841,135.997375 527.752869,142.316071 525.166931,149.121902 
M494.275970,127.413704 
	C497.714478,113.862656 493.079376,104.953247 480.615753,103.122551 
	C473.675049,102.103088 466.461792,102.939445 458.778229,102.939445 
	C458.778229,114.774010 458.720276,126.692482 458.908752,138.607071 
	C458.921326,139.401352 460.774170,140.787216 461.822540,140.838120 
	C466.632141,141.071609 471.480194,141.206146 476.276855,140.858078 
	C484.661346,140.249664 491.319611,136.876053 494.275970,127.413704 
z"/>
<path fill="#FCFCFC" opacity="1.000000" stroke="none" 
	d="
M761.323364,170.420303 
	C756.907898,185.481689 752.673950,200.177017 748.161804,214.786469 
	C747.748474,216.124741 745.572327,217.796356 744.188416,217.820786 
	C730.862549,218.056030 717.528564,217.838440 704.202515,218.068756 
	C700.778564,218.127914 700.078186,216.335876 699.322571,213.774506 
	C691.278503,186.507751 683.174133,159.258774 675.093811,132.002716 
	C669.658142,113.667419 664.229858,95.329910 658.812988,76.989044 
	C658.359131,75.452217 658.017456,73.882225 657.509155,71.875641 
	C671.272278,71.875641 684.501770,71.875641 698.279114,71.875641 
	C706.905273,107.941574 715.585449,144.232971 724.265564,180.524384 
	C724.715393,180.575790 725.165222,180.627197 725.615051,180.678604 
	C727.151794,174.222519 728.729004,167.775787 730.218201,161.308762 
	C736.860718,132.463135 743.437195,103.602074 750.236023,74.793434 
	C750.546265,73.478554 752.759338,71.714310 754.117859,71.686096 
	C765.932983,71.440735 777.755371,71.544548 790.524597,71.544548 
	C780.755432,104.612419 771.092285,137.321655 761.323364,170.420303 
z"/>
<path fill="#FBFBFB" opacity="1.000000" stroke="none" 
	d="
M635.997437,103.940582 
	C622.533997,103.940910 609.569763,103.940910 596.242676,103.940910 
	C596.242676,113.199181 596.242676,122.089005 596.242676,131.598297 
	C612.113281,131.598297 628.001526,131.598297 644.521851,131.598297 
	C644.521851,142.141953 644.631775,152.087662 644.325317,162.020523 
	C644.299133,162.869247 641.512085,164.306198 639.990051,164.329529 
	C627.004028,164.528549 614.010315,164.642960 601.027161,164.376877 
	C596.722107,164.288666 595.766724,165.741043 595.835327,169.777130 
	C596.075928,183.927780 595.957703,198.084702 595.949402,212.239243 
	C595.948364,214.017319 595.790833,215.795303 595.694336,217.812973 
	C582.807312,217.812973 570.388611,217.812973 557.587097,217.812973 
	C557.587097,169.325134 557.587097,120.944572 557.587097,72.090317 
	C588.817932,72.090317 620.172241,72.090317 651.933716,72.090317 
	C651.933716,82.389175 651.933716,92.899658 651.933716,103.940262 
	C646.723999,103.940262 641.610352,103.940262 635.997437,103.940582 
z"/>
<path fill="#FAFAFA" opacity="1.000000" stroke="none" 
	d="
M232.936768,204.781525 
	C230.207275,227.247620 213.803192,243.012878 192.654358,242.702164 
	C168.395767,242.345734 151.578812,223.613403 151.893677,201.614670 
	C152.220917,178.750320 170.209381,161.165756 193.082886,161.516068 
	C216.721313,161.878098 234.066208,181.135605 232.936768,204.781525 
M175.832413,215.678894 
	C178.575195,218.754562 181.317963,221.830231 184.250107,225.118256 
	C196.541016,213.331024 208.406921,201.951385 220.332001,190.515015 
	C218.349670,188.323257 216.621490,186.412521 214.721756,184.312088 
	C204.509933,194.180374 194.731842,203.629501 184.789276,213.237595 
	C179.896378,207.798386 175.373337,202.770370 170.723221,197.601059 
	C168.482620,199.551834 166.635513,201.160019 164.474548,203.041473 
	C168.291199,207.288910 171.824829,211.221390 175.832413,215.678894 
z"/>
<path fill="#F4F4F4" opacity="1.000000" stroke="none" 
	d="
M180.194366,100.213051 
	C181.654724,98.815613 182.795105,97.586830 184.075073,96.526558 
	C188.249588,93.068542 191.095764,89.860580 189.111130,83.312424 
	C187.060226,76.545631 192.133591,69.274307 198.723175,66.461372 
	C205.597992,63.526672 213.146301,65.460304 218.073303,71.418236 
	C222.482193,76.749649 222.922913,84.783333 219.123169,90.556213 
	C215.070557,96.713264 207.586960,99.980049 200.882782,97.426567 
	C196.730972,95.845238 194.490845,96.759117 191.479843,99.610634 
	C154.097763,135.012634 116.569260,170.260025 79.087112,205.556427 
	C78.278114,206.318253 77.571732,207.189026 76.287766,208.584854 
	C80.132675,209.043472 83.332260,209.425110 86.669579,209.823196 
	C80.320717,217.707382 81.695221,217.184143 62.614803,214.737747 
	C64.536209,206.683670 60.593861,196.632462 71.810379,192.075485 
	C71.810379,195.041306 71.810379,198.070084 71.810379,202.262482 
	C108.301865,167.905350 144.120071,134.182114 180.194366,100.213051 
z"/>
<path fill="#F9F9F9" opacity="1.000000" stroke="none" 
	d="
M158.674362,68.052780 
	C169.433640,65.978134 172.333405,75.776047 178.728989,80.041260 
	C170.537308,91.393242 167.096420,93.387688 156.499954,92.604683 
	C159.094223,89.857735 161.404678,87.411308 164.178345,84.474396 
	C162.533249,84.327789 161.467392,84.150253 160.401474,84.149788 
	C127.108795,84.135162 93.815933,84.184616 60.523716,84.060730 
	C57.413551,84.049164 55.941578,84.927277 54.619438,87.812019 
	C51.469498,94.684746 43.981457,98.203529 36.825752,96.774277 
	C29.757778,95.362549 23.439125,88.381523 23.009203,81.509369 
	C22.555719,74.260590 28.330482,66.681366 35.941036,64.536697 
	C42.986786,62.551178 51.158916,65.927223 54.374958,72.919617 
	C55.913120,76.263924 57.731182,77.020493 61.106392,77.008293 
	C93.732796,76.890343 126.359795,76.937439 158.986618,76.937378 
	C160.447845,76.937378 161.909088,76.937378 164.763260,76.937378 
	C162.059387,74.203209 160.093521,72.347229 158.323135,70.320480 
	C157.941620,69.883720 158.265198,68.831055 158.674362,68.052780 
z"/>
<path fill="#F7F7F7" opacity="1.000000" stroke="none" 
	d="
M29.240000,238.832504 
	C24.643967,233.877213 21.258314,228.756989 23.822884,222.026657 
	C26.427542,215.191086 30.969234,210.409302 38.791809,209.947998 
	C46.501339,209.493393 51.713799,213.136337 55.223225,219.859436 
	C55.891609,221.139877 57.786472,222.584702 59.123356,222.592453 
	C84.440323,222.739273 109.758469,222.682663 135.076355,222.650375 
	C135.371704,222.650009 135.666779,222.413132 136.674988,221.981171 
	C134.323135,219.513916 132.135361,217.218796 129.785645,214.753769 
	C141.240112,213.277069 137.818909,212.238800 151.572678,226.607819 
	C145.060013,231.708466 141.462494,241.663040 129.152267,237.854980 
	C132.240356,235.757584 134.954666,233.914062 137.668976,232.070526 
	C137.253372,231.517960 136.837769,230.965393 136.422165,230.412827 
	C109.755836,230.412827 83.089500,230.412827 56.353413,230.412827 
	C49.808735,243.275055 40.348274,246.365921 29.240000,238.832504 
z"/>
<path fill="#DCDCDC" opacity="1.000000" stroke="none" 
	d="
M317.093079,176.000000 
	C317.093109,209.797028 317.093109,243.094055 317.093109,276.443604 
	C314.167938,277.669464 312.760803,277.101898 312.980377,273.938171 
	C313.049438,272.943329 312.990265,271.939606 312.990265,270.939941 
	C312.990234,186.301712 312.990021,101.663483 312.992065,17.025255 
	C312.992126,15.526303 312.819275,13.984676 313.125183,12.547699 
	C313.263184,11.899443 314.383514,11.038918 315.052765,11.043646 
	C315.722198,11.048375 316.792145,11.908963 316.962646,12.578685 
	C317.282074,13.833323 317.091217,15.221038 317.091278,16.553402 
	C317.093384,69.535599 317.093079,122.517799 317.093079,176.000000 
z"/>
<path fill="#060606" opacity="1.000000" stroke="none" 
	d="
M494.195129,127.816895 
	C491.319611,136.876053 484.661346,140.249664 476.276855,140.858078 
	C471.480194,141.206146 466.632141,141.071609 461.822540,140.838120 
	C460.774170,140.787216 458.921326,139.401352 458.908752,138.607071 
	C458.720276,126.692482 458.778229,114.774010 458.778229,102.939445 
	C466.461792,102.939445 473.675049,102.103088 480.615753,103.122551 
	C493.079376,104.953247 497.714478,113.862656 494.195129,127.816895 
z"/>
<path fill="#0E0E0E" opacity="1.000000" stroke="none" 
	d="
M175.595428,215.416382 
	C171.824829,211.221390 168.291199,207.288910 164.474548,203.041473 
	C166.635513,201.160019 168.482620,199.551834 170.723221,197.601059 
	C175.373337,202.770370 179.896378,207.798386 184.789276,213.237595 
	C194.731842,203.629501 204.509933,194.180374 214.721756,184.312088 
	C216.621490,186.412521 218.349670,188.323257 220.332001,190.515015 
	C208.406921,201.951385 196.541016,213.331024 184.250107,225.118256 
	C181.317963,221.830231 178.575195,218.754562 175.595428,215.416382 
z"/>
</svg>